<?xml version="1.0" encoding="UTF-8" standalone="no"?>
<!-- Created with Inkscape (http://www.inkscape.org/) -->

<svg
   xmlns:dc="http://purl.org/dc/elements/1.1/"
   xmlns:cc="http://creativecommons.org/ns#"
   xmlns:rdf="http://www.w3.org/1999/02/22-rdf-syntax-ns#"
   xmlns:svg="http://www.w3.org/2000/svg"
   xmlns="http://www.w3.org/2000/svg"
   xmlns:sodipodi="http://sodipodi.sourceforge.net/DTD/sodipodi-0.dtd"
   xmlns:inkscape="http://www.inkscape.org/namespaces/inkscape"
   version="1.1"
   id="svg820"
   xml:space="preserve"
   width="793.76001"
   height="1122.5601"
   viewBox="0 0 793.76001 1122.5601"
   sodipodi:docname="Abbildung2_mitText.svg"
   inkscape:version="0.92.1 r15371"><metadata
     id="metadata826"><rdf:RDF><cc:Work
         rdf:about=""><dc:format>image/svg+xml</dc:format><dc:type
           rdf:resource="http://purl.org/dc/dcmitype/StillImage" /><dc:title></dc:title></cc:Work></rdf:RDF></metadata><defs
     id="defs824"><clipPath
       clipPathUnits="userSpaceOnUse"
       id="clipPath836"><path
         d="M 8.871e-6,0 H 595.32001 V 841.92 H 8.871e-6 Z"
         id="path834"
         inkscape:connector-curvature="0"
         style="clip-rule:evenodd" /></clipPath><clipPath
       clipPathUnits="userSpaceOnUse"
       id="clipPath848"><path
         d="M 8.871e-6,0 H 595.32001 V 841.92 H 8.871e-6 Z"
         id="path846"
         inkscape:connector-curvature="0"
         style="clip-rule:evenodd" /></clipPath><clipPath
       clipPathUnits="userSpaceOnUse"
       id="clipPath860"><path
         d="M 8.871e-6,0 H 595.32001 V 841.92 H 8.871e-6 Z"
         id="path858"
         inkscape:connector-curvature="0"
         style="clip-rule:evenodd" /></clipPath><clipPath
       clipPathUnits="userSpaceOnUse"
       id="clipPath872"><path
         d="M 8.871e-6,0 H 595.32001 V 841.92 H 8.871e-6 Z"
         id="path870"
         inkscape:connector-curvature="0"
         style="clip-rule:evenodd" /></clipPath><clipPath
       clipPathUnits="userSpaceOnUse"
       id="clipPath880"><path
         d="M 8.871e-6,0 H 595.32001 V 841.92 H 8.871e-6 Z"
         id="path878"
         inkscape:connector-curvature="0"
         style="clip-rule:evenodd" /></clipPath><clipPath
       clipPathUnits="userSpaceOnUse"
       id="clipPath892"><path
         d="M 8.871e-6,0 H 595.32001 V 841.92 H 8.871e-6 Z"
         id="path890"
         inkscape:connector-curvature="0"
         style="clip-rule:evenodd" /></clipPath><clipPath
       clipPathUnits="userSpaceOnUse"
       id="clipPath904"><path
         d="M 8.871e-6,0 H 595.32001 V 841.92 H 8.871e-6 Z"
         id="path902"
         inkscape:connector-curvature="0"
         style="clip-rule:evenodd" /></clipPath><clipPath
       clipPathUnits="userSpaceOnUse"
       id="clipPath916"><path
         d="M 8.871e-6,0 H 595.32001 V 841.92 H 8.871e-6 Z"
         id="path914"
         inkscape:connector-curvature="0"
         style="clip-rule:evenodd" /></clipPath><clipPath
       clipPathUnits="userSpaceOnUse"
       id="clipPath928"><path
         d="M 8.871e-6,0 H 595.32001 V 841.92 H 8.871e-6 Z"
         id="path926"
         inkscape:connector-curvature="0"
         style="clip-rule:evenodd" /></clipPath><clipPath
       clipPathUnits="userSpaceOnUse"
       id="clipPath940"><path
         d="M 8.871e-6,0 H 595.32001 V 841.92 H 8.871e-6 Z"
         id="path938"
         inkscape:connector-curvature="0"
         style="clip-rule:evenodd" /></clipPath><clipPath
       clipPathUnits="userSpaceOnUse"
       id="clipPath952"><path
         d="M 8.871e-6,0 H 595.32001 V 841.92 H 8.871e-6 Z"
         id="path950"
         inkscape:connector-curvature="0"
         style="clip-rule:evenodd" /></clipPath><clipPath
       clipPathUnits="userSpaceOnUse"
       id="clipPath960"><path
         d="M 8.871e-6,0 H 595.32001 V 841.92 H 8.871e-6 Z"
         id="path958"
         inkscape:connector-curvature="0"
         style="clip-rule:evenodd" /></clipPath><clipPath
       clipPathUnits="userSpaceOnUse"
       id="clipPath968"><path
         d="M 8.871e-6,0 H 595.32001 V 841.92 H 8.871e-6 Z"
         id="path966"
         inkscape:connector-curvature="0"
         style="clip-rule:evenodd" /></clipPath><clipPath
       clipPathUnits="userSpaceOnUse"
       id="clipPath980"><path
         d="M 8.871e-6,0 H 595.32001 V 841.92 H 8.871e-6 Z"
         id="path978"
         inkscape:connector-curvature="0"
         style="clip-rule:evenodd" /></clipPath><clipPath
       clipPathUnits="userSpaceOnUse"
       id="clipPath992"><path
         d="M 8.871e-6,0 H 595.32001 V 841.92 H 8.871e-6 Z"
         id="path990"
         inkscape:connector-curvature="0"
         style="clip-rule:evenodd" /></clipPath><clipPath
       clipPathUnits="userSpaceOnUse"
       id="clipPath1004"><path
         d="M 8.871e-6,0 H 595.32001 V 841.92 H 8.871e-6 Z"
         id="path1002"
         inkscape:connector-curvature="0"
         style="clip-rule:evenodd" /></clipPath><clipPath
       clipPathUnits="userSpaceOnUse"
       id="clipPath1016"><path
         d="M 8.871e-6,0 H 595.32001 V 841.92 H 8.871e-6 Z"
         id="path1014"
         inkscape:connector-curvature="0"
         style="clip-rule:evenodd" /></clipPath><clipPath
       clipPathUnits="userSpaceOnUse"
       id="clipPath1028"><path
         d="M 8.871e-6,0 H 595.32001 V 841.92 H 8.871e-6 Z"
         id="path1026"
         inkscape:connector-curvature="0"
         style="clip-rule:evenodd" /></clipPath><clipPath
       clipPathUnits="userSpaceOnUse"
       id="clipPath1040"><path
         d="M 8.871e-6,0 H 595.32001 V 841.92 H 8.871e-6 Z"
         id="path1038"
         inkscape:connector-curvature="0"
         style="clip-rule:evenodd" /></clipPath><clipPath
       clipPathUnits="userSpaceOnUse"
       id="clipPath1052"><path
         d="M 8.871e-6,0 H 595.32001 V 841.92 H 8.871e-6 Z"
         id="path1050"
         inkscape:connector-curvature="0"
         style="clip-rule:evenodd" /></clipPath><clipPath
       clipPathUnits="userSpaceOnUse"
       id="clipPath1064"><path
         d="M 8.871e-6,0 H 595.32001 V 841.92 H 8.871e-6 Z"
         id="path1062"
         inkscape:connector-curvature="0"
         style="clip-rule:evenodd" /></clipPath><clipPath
       clipPathUnits="userSpaceOnUse"
       id="clipPath1076"><path
         d="M 8.871e-6,0 H 595.32001 V 841.92 H 8.871e-6 Z"
         id="path1074"
         inkscape:connector-curvature="0"
         style="clip-rule:evenodd" /></clipPath><clipPath
       clipPathUnits="userSpaceOnUse"
       id="clipPath1088"><path
         d="M 8.871e-6,0 H 595.32001 V 841.92 H 8.871e-6 Z"
         id="path1086"
         inkscape:connector-curvature="0"
         style="clip-rule:evenodd" /></clipPath><clipPath
       clipPathUnits="userSpaceOnUse"
       id="clipPath1096"><path
         d="M 8.871e-6,0 H 595.32001 V 841.92 H 8.871e-6 Z"
         id="path1094"
         inkscape:connector-curvature="0"
         style="clip-rule:evenodd" /></clipPath><clipPath
       clipPathUnits="userSpaceOnUse"
       id="clipPath1108"><path
         d="M 8.871e-6,0 H 595.32001 V 841.92 H 8.871e-6 Z"
         id="path1106"
         inkscape:connector-curvature="0"
         style="clip-rule:evenodd" /></clipPath><clipPath
       clipPathUnits="userSpaceOnUse"
       id="clipPath1120"><path
         d="M 8.871e-6,0 H 595.32001 V 841.92 H 8.871e-6 Z"
         id="path1118"
         inkscape:connector-curvature="0"
         style="clip-rule:evenodd" /></clipPath><clipPath
       clipPathUnits="userSpaceOnUse"
       id="clipPath1128"><path
         d="M 8.871e-6,0 H 595.32001 V 841.92 H 8.871e-6 Z"
         id="path1126"
         inkscape:connector-curvature="0"
         style="clip-rule:evenodd" /></clipPath><clipPath
       clipPathUnits="userSpaceOnUse"
       id="clipPath1136"><path
         d="M 8.871e-6,0 H 595.32001 V 841.92 H 8.871e-6 Z"
         id="path1134"
         inkscape:connector-curvature="0"
         style="clip-rule:evenodd" /></clipPath><clipPath
       clipPathUnits="userSpaceOnUse"
       id="clipPath1144"><path
         d="M 8.871e-6,0 H 595.32001 V 841.92 H 8.871e-6 Z"
         id="path1142"
         inkscape:connector-curvature="0"
         style="clip-rule:evenodd" /></clipPath><clipPath
       clipPathUnits="userSpaceOnUse"
       id="clipPath1152"><path
         d="M 8.871e-6,0 H 595.32001 V 841.92 H 8.871e-6 Z"
         id="path1150"
         inkscape:connector-curvature="0"
         style="clip-rule:evenodd" /></clipPath><clipPath
       clipPathUnits="userSpaceOnUse"
       id="clipPath1168"><path
         d="M 70.8,402.84 H 519.72 V 656.28 H 70.8 Z"
         id="path1166"
         inkscape:connector-curvature="0"
         style="clip-rule:evenodd" /></clipPath><clipPath
       clipPathUnits="userSpaceOnUse"
       id="clipPath1180"><path
         d="M 70.8,402.84 H 519.72 V 656.28 H 70.8 Z"
         id="path1178"
         inkscape:connector-curvature="0"
         style="clip-rule:evenodd" /></clipPath><clipPath
       clipPathUnits="userSpaceOnUse"
       id="clipPath1192"><path
         d="M 70.8,402.84 H 519.72 V 656.28 H 70.8 Z"
         id="path1190"
         inkscape:connector-curvature="0"
         style="clip-rule:evenodd" /></clipPath><clipPath
       clipPathUnits="userSpaceOnUse"
       id="clipPath1204"><path
         d="M 70.8,402.84 H 519.72 V 656.28 H 70.8 Z"
         id="path1202"
         inkscape:connector-curvature="0"
         style="clip-rule:evenodd" /></clipPath><clipPath
       clipPathUnits="userSpaceOnUse"
       id="clipPath1216"><path
         d="M 70.8,402.84 H 519.72 V 656.28 H 70.8 Z"
         id="path1214"
         inkscape:connector-curvature="0"
         style="clip-rule:evenodd" /></clipPath><clipPath
       clipPathUnits="userSpaceOnUse"
       id="clipPath1228"><path
         d="M 70.8,402.84 H 519.72 V 656.28 H 70.8 Z"
         id="path1226"
         inkscape:connector-curvature="0"
         style="clip-rule:evenodd" /></clipPath><clipPath
       clipPathUnits="userSpaceOnUse"
       id="clipPath1240"><path
         d="M 70.8,402.84 H 519.72 V 656.28 H 70.8 Z"
         id="path1238"
         inkscape:connector-curvature="0"
         style="clip-rule:evenodd" /></clipPath><clipPath
       clipPathUnits="userSpaceOnUse"
       id="clipPath1252"><path
         d="M 70.8,402.84 H 519.72 V 656.28 H 70.8 Z"
         id="path1250"
         inkscape:connector-curvature="0"
         style="clip-rule:evenodd" /></clipPath><clipPath
       clipPathUnits="userSpaceOnUse"
       id="clipPath1264"><path
         d="M 70.8,402.84 H 519.72 V 656.28 H 70.8 Z"
         id="path1262"
         inkscape:connector-curvature="0"
         style="clip-rule:evenodd" /></clipPath><clipPath
       clipPathUnits="userSpaceOnUse"
       id="clipPath1276"><path
         d="M 70.8,402.84 H 519.72 V 656.28 H 70.8 Z"
         id="path1274"
         inkscape:connector-curvature="0"
         style="clip-rule:evenodd" /></clipPath><clipPath
       clipPathUnits="userSpaceOnUse"
       id="clipPath1288"><path
         d="M 70.8,402.84 H 519.72 V 656.28 H 70.8 Z"
         id="path1286"
         inkscape:connector-curvature="0"
         style="clip-rule:evenodd" /></clipPath><clipPath
       clipPathUnits="userSpaceOnUse"
       id="clipPath1300"><path
         d="M 70.8,402.84 H 519.72 V 656.28 H 70.8 Z"
         id="path1298"
         inkscape:connector-curvature="0"
         style="clip-rule:evenodd" /></clipPath><clipPath
       clipPathUnits="userSpaceOnUse"
       id="clipPath1312"><path
         d="M 70.8,402.84 H 519.72 V 656.28 H 70.8 Z"
         id="path1310"
         inkscape:connector-curvature="0"
         style="clip-rule:evenodd" /></clipPath><clipPath
       clipPathUnits="userSpaceOnUse"
       id="clipPath1324"><path
         d="M 70.8,402.84 H 519.72 V 656.28 H 70.8 Z"
         id="path1322"
         inkscape:connector-curvature="0"
         style="clip-rule:evenodd" /></clipPath><clipPath
       clipPathUnits="userSpaceOnUse"
       id="clipPath1336"><path
         d="M 70.8,402.84 H 519.72 V 656.28 H 70.8 Z"
         id="path1334"
         inkscape:connector-curvature="0"
         style="clip-rule:evenodd" /></clipPath><clipPath
       clipPathUnits="userSpaceOnUse"
       id="clipPath1348"><path
         d="M 70.8,402.84 H 519.72 V 656.28 H 70.8 Z"
         id="path1346"
         inkscape:connector-curvature="0"
         style="clip-rule:evenodd" /></clipPath><clipPath
       clipPathUnits="userSpaceOnUse"
       id="clipPath1362"><path
         d="M 70.8,402.84 H 519.72 V 656.28 H 70.8 Z"
         id="path1360"
         inkscape:connector-curvature="0"
         style="clip-rule:evenodd" /></clipPath><clipPath
       clipPathUnits="userSpaceOnUse"
       id="clipPath1376"><path
         d="M 70.8,402.84 H 519.72 V 656.28 H 70.8 Z"
         id="path1374"
         inkscape:connector-curvature="0"
         style="clip-rule:evenodd" /></clipPath></defs><sodipodi:namedview
     pagecolor="#ffffff"
     bordercolor="#666666"
     borderopacity="1"
     objecttolerance="10"
     gridtolerance="10"
     guidetolerance="10"
     inkscape:pageopacity="0"
     inkscape:pageshadow="2"
     inkscape:window-width="1920"
     inkscape:window-height="1003"
     id="namedview822"
     showgrid="false"
     inkscape:zoom="1.1892616"
     inkscape:cx="548.7161"
     inkscape:cy="861.08505"
     inkscape:window-x="-9"
     inkscape:window-y="-9"
     inkscape:window-maximized="1"
     inkscape:current-layer="g828" /><g
     id="g828"
     inkscape:groupmode="layer"
     inkscape:label="Abbildung2_mitText"
     transform="matrix(1.3333333,0,0,-1.3333333,0,1122.56)"><g
       id="g830"><g
         id="g832"
         clip-path="url(#clipPath836)"><text
           transform="matrix(1,0,0,-1,70.824,757.66)"
           style="font-variant:normal;font-weight:bold;font-size:14.03999996px;font-family:Calibri;-inkscape-font-specification:Calibri-Bold;writing-mode:lr-tb;fill:#000000;fill-opacity:1;fill-rule:nonzero;stroke:none"
           id="text840"><tspan
             x="0 8.9856005 14.01192 21.453119 29.245319 34.047001 41.109119 48.648602 53.520481 60.5826 64.036438 67.406036 73.008003 75.563278 83.10276 90.164879 97.746483 104.34528 109.24524 111.7584 119.29788 122.68152 129.74364 132.28488 141.77592 146.21255 150.6492 157.71132 165.25079 170.19289 173.54845 177.00227 182.871 190.45261 197.1918 204.12756 207.58141 212.50945 215.0226 222.56207 229.42764 235.29636 242.83585 245.39111 255.85092 259.30475 266.36688 268.90811 275.54904 283.10257 288.08676 290.62799 298.16748 305.72101 311.37912 314.73468 319.63464 323.08847 329.7294 332.22852 339.76801 347.3075 354.31345 359.33975 361.85291 369.3924 372.87433 379.93643 382.47769 390.3822 397.44431 400.82797 405.72791 410.64191 417.57767 424.23264 431.29477 433.80792 441.34741 448.40952 453.39371"
             y="0"
             sodipodi:role="line"
             id="tspan838">Größtenteils denkt die Öffentlichkeit nach wie vor positiv über die Beiträge der </tspan></text>
</g></g><g
       id="g842"><g
         id="g844"
         clip-path="url(#clipPath848)"><text
           transform="matrix(1,0,0,-1,70.824,739.18)"
           style="font-variant:normal;font-weight:bold;font-size:14.03999996px;font-family:Calibri;-inkscape-font-specification:Calibri-Bold;writing-mode:lr-tb;fill:#000000;fill-opacity:1;fill-rule:nonzero;stroke:none"
           id="text852"><tspan
             x="0 12.72024 16.17408 21.719879 27.32184 34.426079 41.867279 47.469238 53.380081 60.821281 67.757042 72.19368 77.121719 85.391281 90.908997 98.448479 109.863 118.13256 124.01532 131.07744 138.61691 145.72116 153.26064 161.54424 169.08372 176.0616 181.08792 189.35748 197.86572 201.31956 204.82956 211.42836 218.49048 229.79268 236.8548 240.23843 247.77792 255.3174 262.42163 265.77719 270.67715 274.29947 282.54095 289.47672 297.04428 304.00812 309.03445 317.30399 324.36612 330.01019 338.27975 344.87857 348.3324 355.80167 360.60336 368.87292 375.93503 379.41696 386.95645 394.01855 401.60016 409.86972 418.37796 425.83319 431.43515 436.30704 439.76089 446.823 453.30948"
             y="0"
             sodipodi:role="line"
             id="tspan850">Wissenschaft zum Leben der Allgemeinheit, aber es gibt einen Anstieg </tspan></text>
</g></g><g
       id="g854"><g
         id="g856"
         clip-path="url(#clipPath860)"><text
           transform="matrix(1,0,0,-1,70.824,720.82)"
           style="font-variant:normal;font-weight:bold;font-size:14.03999996px;font-family:Calibri;-inkscape-font-specification:Calibri-Bold;writing-mode:lr-tb;fill:#000000;fill-opacity:1;fill-rule:nonzero;stroke:none"
           id="text864"><tspan
             x="0 7.5394802 14.6016 21.256559 28.19232 32.993999 36.447842 43.08876 50.150879 55.1772 58.294079 64.934998 68.38884 74.131203 81.670677 86.598717 97.058517 103.99428 107.44812 112.99392 119.95776"
             y="0"
             sodipodi:role="line"
             id="tspan862">negativer Sichtweisen</tspan></text>
</g></g><g
       id="g866"><g
         id="g868"
         clip-path="url(#clipPath872)" /></g><g
       id="g874"><g
         id="g876"
         clip-path="url(#clipPath880)"><text
           transform="matrix(1,0,0,-1,70.824,697.3)"
           style="font-style:italic;font-variant:normal;font-weight:normal;font-size:11.03999996px;font-family:Calibri;-inkscape-font-specification:Calibri-Italic;writing-mode:lr-tb;fill:#000000;fill-opacity:1;fill-rule:nonzero;stroke:none"
           id="text884"><tspan
             x="0 6.9662399 12.24336 16.559999 21.83712 24.37632 29.99568 33.69408 36.708 44.601601 47.1408 50.97168 56.613121 59.726398 65.246399 70.523521 74.244003 77.357277 82.998718 86.829597 92.493118 96.787682 102.0648 107.73936 111.43776 115.73232 121.26336 124.96176 129.32256 132.41376 138.05521 143.33232 147.0528 150.16608 157.12128"
             y="0"
             sodipodi:role="line"
             id="tspan882">Gezeigt wird der Prozentsatz der US</tspan></text>
</g></g><g
       id="g886"><g
         id="g888"
         clip-path="url(#clipPath892)"><text
           transform="matrix(1,0,0,-1,233.09,697.3)"
           style="font-style:italic;font-variant:normal;font-weight:normal;font-size:11.03999996px;font-family:Calibri;-inkscape-font-specification:Calibri-Italic;writing-mode:lr-tb;fill:#000000;fill-opacity:1;fill-rule:nonzero;stroke:none"
           id="text896"><tspan
             x="0"
             y="0"
             id="tspan894">-</tspan></text>
</g></g><g
       id="g898"><g
         id="g900"
         clip-path="url(#clipPath904)"><text
           transform="matrix(1,0,0,-1,236.45,697.3)"
           style="font-style:italic;font-variant:normal;font-weight:normal;font-size:11.03999996px;font-family:Calibri;-inkscape-font-specification:Calibri-Italic;writing-mode:lr-tb;fill:#000000;fill-opacity:1;fill-rule:nonzero;stroke:none"
           id="text908"><tspan
             x="0 6.3921599 15.1248 20.280479 24.111361 26.65056 31.673759 37.315201 42.956638 45.495838 49.790401 54.383041 59.99136 65.268478 70.943039 73.901756 79.289284 83.131203 91.024803 96.699364 101.24784 106.88928 111.18384 116.46096 122.01408 127.2912 132.96576 135.72575 138.80592 144.44736 146.98656 152.1312 155.24448 159.53905 165.21359 170.84399 176.12112 181.79568 184.55568 187.63583 193.15584 198.79729 203.09184 207.43056"
             y="0"
             sodipodi:role="line"
             id="tspan906">Amerikanischen Erwachsenen, die sagen, dass </tspan></text>
</g></g><g
       id="g910"><g
         id="g912"
         clip-path="url(#clipPath916)"><text
           transform="matrix(1,0,0,-1,447.07,697.3)"
           style="font-style:italic;font-variant:normal;font-weight:normal;font-size:11.03999996px;font-family:Calibri;-inkscape-font-specification:Calibri-Italic;writing-mode:lr-tb;fill:#000000;fill-opacity:1;fill-rule:nonzero;stroke:none"
           id="text920"><tspan
             x="0 9.8255997 12.24336 16.53792 20.87664 26.153761 31.82832 36.122879 40.67136 46.312801 51.954239 55.321442 58.909439 62.02272 67.664162 73.184158 77.379356"
             y="0"
             sodipodi:role="line"
             id="tspan918">Wissenschaft das </tspan></text>
</g></g><g
       id="g922"><g
         id="g924"
         clip-path="url(#clipPath928)"><text
           transform="matrix(1,0,0,-1,70.824,682.78)"
           style="font-style:italic;font-variant:normal;font-weight:normal;font-size:11.03999996px;font-family:Calibri;-inkscape-font-specification:Calibri-Italic;writing-mode:lr-tb;fill:#000000;fill-opacity:1;fill-rule:nonzero;stroke:none"
           id="text932"><tspan
             x="0 4.66992 9.9470396 15.6216 20.89872 26.50704 28.427999 33.097919 38.485439 41.024639 46.655041 50.02224 55.652641 60.245281 65.8536 71.009277 74.840157 79.510078 81.431038 87.094559 92.713921 97.869598 101.70048 103.62144 108.18096 113.2152 117.65328 123.29472 131.18832 133.72752 139.00464 142.84656 145.38576 151.00513 156.1608 159.99168 164.66161 166.58257 169.94975 175.45872 179.2896 181.21056 186.85201 189.3912 194.66832 196.5672 205.29984 210.57697 213.00575 217.30032 221.03185 226.30896 231.98352 233.74992 243.22224 248.49936 254.17392 258.46848 263.01697 268.65839 273.93552 279.61008 281.49792 287.13937 292.41647 301.14911 306.82367 311.38321 317.02463 320.72305 322.66608 328.30753 333.94897 337.64737 339.59039 345.23184 350.50897 356.02896 359.85983 365.50128 371.14273 376.41983 380.11823 382.06128 387.70273 393.34415 397.9368 403.5451 405.46609 411.10751 416.38464 422.0592 423.94705 427.42465 433.06607 438.70752 442.53839 447.81552 453.49008"
             y="0"
             sodipodi:role="line"
             id="tspan930">Leben „Einfacher“ oder „Schwieriger“ für die meisten Menschen gemacht hat geordnet nach den Jahren </tspan></text>
</g></g><g
       id="g934"><g
         id="g936"
         clip-path="url(#clipPath940)"><text
           transform="matrix(1,0,0,-1,70.824,668.26)"
           style="font-style:italic;font-variant:normal;font-weight:normal;font-size:11.03999996px;font-family:Calibri;-inkscape-font-specification:Calibri-Italic;writing-mode:lr-tb;fill:#000000;fill-opacity:1;fill-rule:nonzero;stroke:none"
           id="text944"><tspan
             x="0 5.6304002 11.1504 16.7808 22.4112 24.90624 30.580799 36.211201 41.852638 44.248322 49.878719 55.39872 61.029121 66.659523"
             y="0"
             sodipodi:role="line"
             id="tspan942">2009 und 2014.</tspan></text>
</g></g><g
       id="g946"><g
         id="g948"
         clip-path="url(#clipPath952)" /></g><g
       id="g954"><g
         id="g956"
         clip-path="url(#clipPath960)" /></g><g
       id="g962"><g
         id="g964"
         clip-path="url(#clipPath968)"><text
           transform="matrix(1,0,0,-1,70.824,385.01)"
           style="font-style:italic;font-variant:normal;font-weight:normal;font-size:9px;font-family:Calibri;-inkscape-font-specification:Calibri-Italic;writing-mode:lr-tb;fill:#808080;fill-opacity:1;fill-rule:nonzero;stroke:none"
           id="text972"><tspan
             x="0 5.5349998 7.5599999 11.862 15.363 19.665001 22.554001 27.711 32.382 37.053001 39.096001 41.139 45.810001 50.480999 55.152 59.823002 62.577 69.047997 73.719002 76.716003 81.387001 85.689003 88.578003 93.140999 97.811996 101.313 103.329 107.631 110.763 114.966 119.529 124.2 127.071 131.742 136.41299 139.158 141.92101 146.592 150.894 154.026 156.897 162.675 169.74001 172.485 175.608 180.17101 184.842 189.144 192.033 196.70399 201.006 204.507 207.37801 211.94099 216.243 222.73199 225.603 230.517 234.819 238.194 242.496 247.185 250.299 254.043 258.68701 261.55801 266.25601 270.55801 275.229 278.10901 282.41101 285.543 288.414 292.716 295.84799 299.349 302.328 306.63 308.70001 310.72501 313.73999 316.008 318.879 324.414 326.439 330.741 333.63 339.40799 346.47299 349.21799 352.341 356.90399 361.57501 365.87701 368.76599 373.43701 377.73901 379.80899 382.67099 388.44901"
             y="0"
             sodipodi:role="line"
             id="tspan970">Diese Abbildung wurde basierend auf der Umfrage des Pew Research Center erstellt. Die Umfrage bei US</tspan></text>
</g></g><g
       id="g974"><g
         id="g976"
         clip-path="url(#clipPath980)"><text
           transform="matrix(1,0,0,-1,463.78,385.01)"
           style="font-style:italic;font-variant:normal;font-weight:normal;font-size:9px;font-family:Calibri;-inkscape-font-specification:Calibri-Italic;writing-mode:lr-tb;fill:#808080;fill-opacity:1;fill-rule:nonzero;stroke:none"
           id="text984"><tspan
             x="0"
             y="0"
             id="tspan982">-</tspan></text>
</g></g><g
       id="g986"><g
         id="g988"
         clip-path="url(#clipPath992)"><text
           transform="matrix(1,0,0,-1,466.54,385.01)"
           style="font-style:italic;font-variant:normal;font-weight:normal;font-size:9px;font-family:Calibri;-inkscape-font-specification:Calibri-Italic;writing-mode:lr-tb;fill:#808080;fill-opacity:1;fill-rule:nonzero;stroke:none"
           id="text996"><tspan
             x="0 5.1570001 12.24 16.542 19.674 21.716999 25.812 30.465 35.136002 37.179001 40.68 44.379002 49.049999 53.252998 57.924"
             y="0"
             sodipodi:role="line"
             id="tspan994">Amerikanischen </tspan></text>
</g></g><g
       id="g998"><g
         id="g1000"
         clip-path="url(#clipPath1004)"><text
           transform="matrix(1,0,0,-1,70.824,373.13)"
           style="font-style:italic;font-variant:normal;font-weight:normal;font-size:9px;font-family:Calibri;-inkscape-font-specification:Calibri-Italic;writing-mode:lr-tb;fill:#808080;fill-opacity:1;fill-rule:nonzero;stroke:none"
           id="text1008"><tspan
             x="0 4.428 7.5419998 14.013 18.684 22.284 26.955"
             y="0"
             sodipodi:role="line"
             id="tspan1006">Erwachs</tspan></text>
</g></g><g
       id="g1010"><g
         id="g1012"
         clip-path="url(#clipPath1016)"><text
           transform="matrix(1,0,0,-1,101.3,373.13)"
           style="font-style:italic;font-variant:normal;font-weight:normal;font-size:9px;font-family:Calibri;-inkscape-font-specification:Calibri-Italic;writing-mode:lr-tb;fill:#808080;fill-opacity:1;fill-rule:nonzero;stroke:none"
           id="text1020"><tspan
             x="0 4.302 8.9910002 13.194 17.865 20.259001 22.896 27.566999 32.130001 36.800999"
             y="0"
             sodipodi:role="line"
             id="tspan1018">enen fand </tspan></text>
</g></g><g
       id="g1022"><g
         id="g1024"
         clip-path="url(#clipPath1028)"><text
           transform="matrix(1,0,0,-1,140.42,373.13)"
           style="font-style:italic;font-variant:normal;font-weight:normal;font-size:9px;font-family:Calibri;-inkscape-font-specification:Calibri-Italic;writing-mode:lr-tb;fill:#808080;fill-opacity:1;fill-rule:nonzero;stroke:none"
           id="text1032"><tspan
             x="0 3.5910001 10.062 12.105 15.606 19.305 23.976 28.278 32.859001 35.252998 39.924 44.226002 51.201 53.595001 58.158001 62.721001 64.988998 69.552002 74.114998"
             y="0"
             sodipodi:role="line"
             id="tspan1030">zwischen dem 28.04.</tspan></text>
</g></g><g
       id="g1034"><g
         id="g1036"
         clip-path="url(#clipPath1040)"><text
           transform="matrix(1,0,0,-1,216.89,373.13)"
           style="font-style:italic;font-variant:normal;font-weight:normal;font-size:9px;font-family:Calibri;-inkscape-font-specification:Calibri-Italic;writing-mode:lr-tb;fill:#808080;fill-opacity:1;fill-rule:nonzero;stroke:none"
           id="text1044"><tspan
             x="0"
             y="0"
             id="tspan1042">-</tspan></text>
</g></g><g
       id="g1046"><g
         id="g1048"
         clip-path="url(#clipPath1052)"><text
           transform="matrix(1,0,0,-1,219.65,373.13)"
           style="font-style:italic;font-variant:normal;font-weight:normal;font-size:9px;font-family:Calibri;-inkscape-font-specification:Calibri-Italic;writing-mode:lr-tb;fill:#808080;fill-opacity:1;fill-rule:nonzero;stroke:none"
           id="text1056"><tspan
             x="0 4.5630002 9.1260004 11.394 15.957 20.52 22.788 27.351 31.914 36.477001 41.040001 43.307999 47.979 52.650002 57.213001 59.606998 63.09 69.560997 71.603996 75.105003 78.804001 83.474998 87.777 92.358002 94.625999 99.296997 103.599 110.718 113.085 117.648"
             y="0"
             sodipodi:role="line"
             id="tspan1054">12.05.2009 und zwischen dem 15</tspan></text>
</g></g><g
       id="g1058"><g
         id="g1060"
         clip-path="url(#clipPath1064)"><text
           transform="matrix(1,0,0,-1,341.95,373.13)"
           style="font-style:italic;font-variant:normal;font-weight:normal;font-size:9px;font-family:Calibri;-inkscape-font-specification:Calibri-Italic;writing-mode:lr-tb;fill:#808080;fill-opacity:1;fill-rule:nonzero;stroke:none"
           id="text1068"><tspan
             x="0"
             y="0"
             id="tspan1066">-</tspan></text>
</g></g><g
       id="g1070"><g
         id="g1072"
         clip-path="url(#clipPath1076)"><text
           transform="matrix(1,0,0,-1,344.71,373.13)"
           style="font-style:italic;font-variant:normal;font-weight:normal;font-size:9px;font-family:Calibri;-inkscape-font-specification:Calibri-Italic;writing-mode:lr-tb;fill:#808080;fill-opacity:1;fill-rule:nonzero;stroke:none"
           id="text1080"><tspan
             x="0 4.5630002 9.1260004 11.394 15.957 20.52 22.788 27.351 31.914 36.477001 41.040001 43.433998 46.935001 49.914001 54.584999 57.599998 60.588001"
             y="0"
             sodipodi:role="line"
             id="tspan1078">25.08.2014 statt.</tspan></text>
</g></g><g
       id="g1082"><g
         id="g1084"
         clip-path="url(#clipPath1088)" /></g><g
       id="g1090"><g
         id="g1092"
         clip-path="url(#clipPath1096)"><text
           transform="matrix(1,0,0,-1,409.87,373.13)"
           style="font-style:italic;font-variant:normal;font-weight:normal;font-size:9px;font-family:Calibri;-inkscape-font-specification:Calibri-Italic;writing-mode:lr-tb;fill:#808080;fill-opacity:1;fill-rule:nonzero;stroke:none"
           id="text1100"><tspan
             x="0 5.5349998 7.5599999 11.862 14.274 18.927 23.157 26.153999 29.655001 34.191002 38.862 43.164001 47.853001 50.120998 52.389 57.060001 59.103001 63.404999 65.817001 72.900002 74.943001 77.958 80.334 84.051003 86.319 90.063004 94.724998 96.992996 103.464 107.766 109.836 114.507"
             y="0"
             sodipodi:role="line"
             id="tspan1098">Die Personen, die mit „Ich weiß </tspan></text>
</g></g><g
       id="g1102"><g
         id="g1104"
         clip-path="url(#clipPath1108)"><text
           transform="matrix(1,0,0,-1,70.824,361.37)"
           style="font-style:italic;font-variant:normal;font-weight:normal;font-size:9px;font-family:Calibri;-inkscape-font-specification:Calibri-Italic;writing-mode:lr-tb;fill:#808080;fill-opacity:1;fill-rule:nonzero;stroke:none"
           id="text1112"><tspan
             x="0 4.671 6.7140002 10.458 15.102 18.117001 21.825001 23.858999 28.539 33.209999 36.224998 42.678001 47.241001 50.355 53.369999 57.672001 60.687 64.988998 69.552002 71.82 73.853996 77.355003 79.379997 84.051003 88.722 90.639 95.309998 97.352997 101.097 105.741 108.756 110.79 115.344 119.907 124.578 128.88 133.569 135.612 137.655 142.326 146.62801 149.64301"
             y="0"
             sodipodi:role="line"
             id="tspan1110">nicht“ antworteten, sind nicht abgebildet.</tspan></text>
</g></g><g
       id="g1114"><g
         id="g1116"
         clip-path="url(#clipPath1120)" /></g><g
       id="g1122"><g
         id="g1124"
         clip-path="url(#clipPath1128)" /></g><g
       id="g1130"><g
         id="g1132"
         clip-path="url(#clipPath1136)" /></g><g
       id="g1138"><g
         id="g1140"
         clip-path="url(#clipPath1144)" /></g><g
       id="g1146"><g
         id="g1148"
         clip-path="url(#clipPath1152)" /></g><path
       d="M 191.04,472.2 H 128.41 V 498 h 62.63 z m 267.24,98.28 H 128.41 v 25.68 h 329.87 z"
       style="fill:#3b64ad;fill-opacity:1;fill-rule:nonzero;stroke:none"
       id="path1156"
       inkscape:connector-curvature="0" /><path
       d="m 170.16,498 h -41.75 v 25.68 h 41.75 z m 304.8,98.16 H 128.41 v 25.68 h 346.55 z"
       style="fill:#8fa2d4;fill-opacity:1;fill-rule:nonzero;stroke:none"
       id="path1158"
       inkscape:connector-curvature="0" /><path
       d="M 128.41,448.84 V 645.27"
       style="fill:none;stroke:#d9d9d9;stroke-width:0.75;stroke-linecap:butt;stroke-linejoin:round;stroke-miterlimit:10;stroke-dasharray:none;stroke-opacity:1"
       id="path1160"
       inkscape:connector-curvature="0" /><g
       id="g1162"><g
         id="g1164"
         clip-path="url(#clipPath1168)"><text
           transform="matrix(1,0,0,-1,197.06,482.02)"
           style="font-variant:normal;font-weight:normal;font-size:9px;font-family:Calibri;-inkscape-font-specification:Calibri;writing-mode:lr-tb;fill:#404040;fill-opacity:1;fill-rule:nonzero;stroke:none"
           id="text1172"><tspan
             x="0 4.5599999"
             y="0"
             sodipodi:role="line"
             id="tspan1170">15</tspan></text>
</g></g><g
       id="g1174"><g
         id="g1176"
         clip-path="url(#clipPath1180)"><text
           transform="matrix(1,0,0,-1,464.38,580.25)"
           style="font-variant:normal;font-weight:normal;font-size:9px;font-family:Calibri;-inkscape-font-specification:Calibri;writing-mode:lr-tb;fill:#404040;fill-opacity:1;fill-rule:nonzero;stroke:none"
           id="text1184"><tspan
             x="0 4.5599999"
             y="0"
             sodipodi:role="line"
             id="tspan1182">79</tspan></text>
</g></g><g
       id="g1186"><g
         id="g1188"
         clip-path="url(#clipPath1192)"><text
           transform="matrix(1,0,0,-1,176.18,507.72)"
           style="font-variant:normal;font-weight:normal;font-size:9px;font-family:Calibri;-inkscape-font-specification:Calibri;writing-mode:lr-tb;fill:#404040;fill-opacity:1;fill-rule:nonzero;stroke:none"
           id="text1196"><tspan
             x="0 4.5599999"
             y="0"
             sodipodi:role="line"
             id="tspan1194">10</tspan></text>
</g></g><g
       id="g1198"><g
         id="g1200"
         clip-path="url(#clipPath1204)"><text
           transform="matrix(1,0,0,-1,481.08,605.95)"
           style="font-variant:normal;font-weight:normal;font-size:9px;font-family:Calibri;-inkscape-font-specification:Calibri;writing-mode:lr-tb;fill:#404040;fill-opacity:1;fill-rule:nonzero;stroke:none"
           id="text1208"><tspan
             x="0 4.5599999"
             y="0"
             sodipodi:role="line"
             id="tspan1206">83</tspan></text>
</g></g><g
       id="g1210"><g
         id="g1212"
         clip-path="url(#clipPath1216)"><text
           transform="matrix(1,0,0,-1,126.14,434.54)"
           style="font-variant:normal;font-weight:normal;font-size:9px;font-family:Calibri;-inkscape-font-specification:Calibri;writing-mode:lr-tb;fill:#595959;fill-opacity:1;fill-rule:nonzero;stroke:none"
           id="text1220"><tspan
             x="0"
             y="0"
             id="tspan1218">0</tspan></text>
</g></g><g
       id="g1222"><g
         id="g1224"
         clip-path="url(#clipPath1228)"><text
           transform="matrix(1,0,0,-1,165.65,434.54)"
           style="font-variant:normal;font-weight:normal;font-size:9px;font-family:Calibri;-inkscape-font-specification:Calibri;writing-mode:lr-tb;fill:#595959;fill-opacity:1;fill-rule:nonzero;stroke:none"
           id="text1232"><tspan
             x="0 4.5599999"
             y="0"
             sodipodi:role="line"
             id="tspan1230">10</tspan></text>
</g></g><g
       id="g1234"><g
         id="g1236"
         clip-path="url(#clipPath1240)"><text
           transform="matrix(1,0,0,-1,207.41,434.54)"
           style="font-variant:normal;font-weight:normal;font-size:9px;font-family:Calibri;-inkscape-font-specification:Calibri;writing-mode:lr-tb;fill:#595959;fill-opacity:1;fill-rule:nonzero;stroke:none"
           id="text1244"><tspan
             x="0 4.5599999"
             y="0"
             sodipodi:role="line"
             id="tspan1242">20</tspan></text>
</g></g><g
       id="g1246"><g
         id="g1248"
         clip-path="url(#clipPath1252)"><text
           transform="matrix(1,0,0,-1,249.17,434.54)"
           style="font-variant:normal;font-weight:normal;font-size:9px;font-family:Calibri;-inkscape-font-specification:Calibri;writing-mode:lr-tb;fill:#595959;fill-opacity:1;fill-rule:nonzero;stroke:none"
           id="text1256"><tspan
             x="0 4.5599999"
             y="0"
             sodipodi:role="line"
             id="tspan1254">30</tspan></text>
</g></g><g
       id="g1258"><g
         id="g1260"
         clip-path="url(#clipPath1264)"><text
           transform="matrix(1,0,0,-1,290.95,434.54)"
           style="font-variant:normal;font-weight:normal;font-size:9px;font-family:Calibri;-inkscape-font-specification:Calibri;writing-mode:lr-tb;fill:#595959;fill-opacity:1;fill-rule:nonzero;stroke:none"
           id="text1268"><tspan
             x="0 4.5599999"
             y="0"
             sodipodi:role="line"
             id="tspan1266">40</tspan></text>
</g></g><g
       id="g1270"><g
         id="g1272"
         clip-path="url(#clipPath1276)"><text
           transform="matrix(1,0,0,-1,332.71,434.54)"
           style="font-variant:normal;font-weight:normal;font-size:9px;font-family:Calibri;-inkscape-font-specification:Calibri;writing-mode:lr-tb;fill:#595959;fill-opacity:1;fill-rule:nonzero;stroke:none"
           id="text1280"><tspan
             x="0 4.5599999"
             y="0"
             sodipodi:role="line"
             id="tspan1278">50</tspan></text>
</g></g><g
       id="g1282"><g
         id="g1284"
         clip-path="url(#clipPath1288)"><text
           transform="matrix(1,0,0,-1,374.47,434.54)"
           style="font-variant:normal;font-weight:normal;font-size:9px;font-family:Calibri;-inkscape-font-specification:Calibri;writing-mode:lr-tb;fill:#595959;fill-opacity:1;fill-rule:nonzero;stroke:none"
           id="text1292"><tspan
             x="0 4.5599999"
             y="0"
             sodipodi:role="line"
             id="tspan1290">60</tspan></text>
</g></g><g
       id="g1294"><g
         id="g1296"
         clip-path="url(#clipPath1300)"><text
           transform="matrix(1,0,0,-1,416.23,434.54)"
           style="font-variant:normal;font-weight:normal;font-size:9px;font-family:Calibri;-inkscape-font-specification:Calibri;writing-mode:lr-tb;fill:#595959;fill-opacity:1;fill-rule:nonzero;stroke:none"
           id="text1304"><tspan
             x="0 4.5599999"
             y="0"
             sodipodi:role="line"
             id="tspan1302">70</tspan></text>
</g></g><g
       id="g1306"><g
         id="g1308"
         clip-path="url(#clipPath1312)"><text
           transform="matrix(1,0,0,-1,458.02,434.54)"
           style="font-variant:normal;font-weight:normal;font-size:9px;font-family:Calibri;-inkscape-font-specification:Calibri;writing-mode:lr-tb;fill:#595959;fill-opacity:1;fill-rule:nonzero;stroke:none"
           id="text1316"><tspan
             x="0 4.5599999"
             y="0"
             sodipodi:role="line"
             id="tspan1314">80</tspan></text>
</g></g><g
       id="g1318"><g
         id="g1320"
         clip-path="url(#clipPath1324)"><text
           transform="matrix(1,0,0,-1,499.78,434.54)"
           style="font-variant:normal;font-weight:normal;font-size:9px;font-family:Calibri;-inkscape-font-specification:Calibri;writing-mode:lr-tb;fill:#595959;fill-opacity:1;fill-rule:nonzero;stroke:none"
           id="text1328"><tspan
             x="0 4.5599999"
             y="0"
             sodipodi:role="line"
             id="tspan1326">90</tspan></text>
</g></g><g
       id="g1330"><g
         id="g1332"
         clip-path="url(#clipPath1336)"><text
           transform="matrix(1,0,0,-1,77.376,495.36)"
           style="font-variant:normal;font-weight:normal;font-size:9px;font-family:Calibri;-inkscape-font-specification:Calibri;writing-mode:lr-tb;fill:#595959;fill-opacity:1;fill-rule:nonzero;stroke:none"
           id="text1340"><tspan
             x="0 4.0770001 7.9109998 12.699 19.062 21.105 25.659 28.799999 30.816 35.019001 39.573002"
             y="0"
             sodipodi:role="line"
             id="tspan1338">Schwieriger</tspan></text>
</g></g><g
       id="g1342"><g
         id="g1344"
         clip-path="url(#clipPath1348)"><text
           transform="matrix(1,0,0,-1,85.68,593.59)"
           style="font-variant:normal;font-weight:normal;font-size:9px;font-family:Calibri;-inkscape-font-specification:Calibri;writing-mode:lr-tb;fill:#595959;fill-opacity:1;fill-rule:nonzero;stroke:none"
           id="text1352"><tspan
             x="0 4.428 6.4710002 11.151 13.896 18.207001 22.059 26.739 31.292999"
             y="0"
             sodipodi:role="line"
             id="tspan1350">Einfacher</tspan></text>
</g></g><path
       d="m 268.54,414.74 h 4.9433 v 4.9433 H 268.54 Z"
       style="fill:#8fa2d4;fill-opacity:1;fill-rule:evenodd;stroke:none"
       id="path1354"
       inkscape:connector-curvature="0" /><g
       id="g1356"><g
         id="g1358"
         clip-path="url(#clipPath1362)"><text
           transform="matrix(1,0,0,-1,275.64,414.6)"
           style="font-variant:normal;font-weight:normal;font-size:9px;font-family:Calibri;-inkscape-font-specification:Calibri;writing-mode:lr-tb;fill:#595959;fill-opacity:1;fill-rule:nonzero;stroke:none"
           id="text1366"><tspan
             x="0 4.5599999 9.1199999 13.68"
             y="0"
             sodipodi:role="line"
             id="tspan1364">2009</tspan></text>
</g></g><path
       d="m 300.42,414.74 h 4.9433 v 4.9433 H 300.42 Z"
       style="fill:#3b64ad;fill-opacity:1;fill-rule:evenodd;stroke:none"
       id="path1368"
       inkscape:connector-curvature="0" /><g
       id="g1370"><g
         id="g1372"
         clip-path="url(#clipPath1376)"><text
           transform="matrix(1,0,0,-1,307.51,414.6)"
           style="font-variant:normal;font-weight:normal;font-size:9px;font-family:Calibri;-inkscape-font-specification:Calibri;writing-mode:lr-tb;fill:#595959;fill-opacity:1;fill-rule:nonzero;stroke:none"
           id="text1380"><tspan
             x="0 4.5599999 9.1199999 13.68"
             y="0"
             sodipodi:role="line"
             id="tspan1378">2014</tspan></text>
</g></g></g></svg>