<?xml version="1.0" encoding="UTF-8" standalone="no"?>
<!-- Created with Inkscape (http://www.inkscape.org/) -->

<svg
   xmlns:dc="http://purl.org/dc/elements/1.1/"
   xmlns:cc="http://creativecommons.org/ns#"
   xmlns:rdf="http://www.w3.org/1999/02/22-rdf-syntax-ns#"
   xmlns:svg="http://www.w3.org/2000/svg"
   xmlns="http://www.w3.org/2000/svg"
   xmlns:sodipodi="http://sodipodi.sourceforge.net/DTD/sodipodi-0.dtd"
   xmlns:inkscape="http://www.inkscape.org/namespaces/inkscape"
   version="1.1"
   id="svg10"
   xml:space="preserve"
   width="793.76001"
   height="1122.5601"
   viewBox="0 0 793.76001 1122.5601"
   sodipodi:docname="Abbildung1_mitText.svg"
   inkscape:version="0.92.1 r15371"><metadata
     id="metadata16"><rdf:RDF><cc:Work
         rdf:about=""><dc:format>image/svg+xml</dc:format><dc:type
           rdf:resource="http://purl.org/dc/dcmitype/StillImage" /><dc:title></dc:title></cc:Work></rdf:RDF></metadata><defs
     id="defs14"><clipPath
       clipPathUnits="userSpaceOnUse"
       id="clipPath26"><path
         d="M 8.871e-6,0 H 595.32001 V 841.92 H 8.871e-6 Z"
         id="path24"
         inkscape:connector-curvature="0"
         style="clip-rule:evenodd" /></clipPath><clipPath
       clipPathUnits="userSpaceOnUse"
       id="clipPath38"><path
         d="M 8.871e-6,0 H 595.32001 V 841.92 H 8.871e-6 Z"
         id="path36"
         inkscape:connector-curvature="0"
         style="clip-rule:evenodd" /></clipPath><clipPath
       clipPathUnits="userSpaceOnUse"
       id="clipPath46"><path
         d="M 8.871e-6,0 H 595.32001 V 841.92 H 8.871e-6 Z"
         id="path44"
         inkscape:connector-curvature="0"
         style="clip-rule:evenodd" /></clipPath><clipPath
       clipPathUnits="userSpaceOnUse"
       id="clipPath58"><path
         d="M 8.871e-6,0 H 595.32001 V 841.92 H 8.871e-6 Z"
         id="path56"
         inkscape:connector-curvature="0"
         style="clip-rule:evenodd" /></clipPath><clipPath
       clipPathUnits="userSpaceOnUse"
       id="clipPath70"><path
         d="M 8.871e-6,0 H 595.32001 V 841.92 H 8.871e-6 Z"
         id="path68"
         inkscape:connector-curvature="0"
         style="clip-rule:evenodd" /></clipPath><clipPath
       clipPathUnits="userSpaceOnUse"
       id="clipPath82"><path
         d="M 8.871e-6,0 H 595.32001 V 841.92 H 8.871e-6 Z"
         id="path80"
         inkscape:connector-curvature="0"
         style="clip-rule:evenodd" /></clipPath><clipPath
       clipPathUnits="userSpaceOnUse"
       id="clipPath90"><path
         d="M 8.871e-6,0 H 595.32001 V 841.92 H 8.871e-6 Z"
         id="path88"
         inkscape:connector-curvature="0"
         style="clip-rule:evenodd" /></clipPath><clipPath
       clipPathUnits="userSpaceOnUse"
       id="clipPath98"><path
         d="M 8.871e-6,0 H 595.32001 V 841.92 H 8.871e-6 Z"
         id="path96"
         inkscape:connector-curvature="0"
         style="clip-rule:evenodd" /></clipPath><clipPath
       clipPathUnits="userSpaceOnUse"
       id="clipPath110"><path
         d="M 8.871e-6,0 H 595.32001 V 841.92 H 8.871e-6 Z"
         id="path108"
         inkscape:connector-curvature="0"
         style="clip-rule:evenodd" /></clipPath><clipPath
       clipPathUnits="userSpaceOnUse"
       id="clipPath122"><path
         d="M 8.871e-6,0 H 595.32001 V 841.92 H 8.871e-6 Z"
         id="path120"
         inkscape:connector-curvature="0"
         style="clip-rule:evenodd" /></clipPath><clipPath
       clipPathUnits="userSpaceOnUse"
       id="clipPath134"><path
         d="M 8.871e-6,0 H 595.32001 V 841.92 H 8.871e-6 Z"
         id="path132"
         inkscape:connector-curvature="0"
         style="clip-rule:evenodd" /></clipPath><clipPath
       clipPathUnits="userSpaceOnUse"
       id="clipPath146"><path
         d="M 8.871e-6,0 H 595.32001 V 841.92 H 8.871e-6 Z"
         id="path144"
         inkscape:connector-curvature="0"
         style="clip-rule:evenodd" /></clipPath><clipPath
       clipPathUnits="userSpaceOnUse"
       id="clipPath158"><path
         d="M 8.871e-6,0 H 595.32001 V 841.92 H 8.871e-6 Z"
         id="path156"
         inkscape:connector-curvature="0"
         style="clip-rule:evenodd" /></clipPath><clipPath
       clipPathUnits="userSpaceOnUse"
       id="clipPath170"><path
         d="M 8.871e-6,0 H 595.32001 V 841.92 H 8.871e-6 Z"
         id="path168"
         inkscape:connector-curvature="0"
         style="clip-rule:evenodd" /></clipPath><clipPath
       clipPathUnits="userSpaceOnUse"
       id="clipPath182"><path
         d="M 8.871e-6,0 H 595.32001 V 841.92 H 8.871e-6 Z"
         id="path180"
         inkscape:connector-curvature="0"
         style="clip-rule:evenodd" /></clipPath><clipPath
       clipPathUnits="userSpaceOnUse"
       id="clipPath190"><path
         d="M 8.871e-6,0 H 595.32001 V 841.92 H 8.871e-6 Z"
         id="path188"
         inkscape:connector-curvature="0"
         style="clip-rule:evenodd" /></clipPath><clipPath
       clipPathUnits="userSpaceOnUse"
       id="clipPath202"><path
         d="M 8.871e-6,0 H 595.32001 V 841.92 H 8.871e-6 Z"
         id="path200"
         inkscape:connector-curvature="0"
         style="clip-rule:evenodd" /></clipPath><clipPath
       clipPathUnits="userSpaceOnUse"
       id="clipPath214"><path
         d="M 8.871e-6,0 H 595.32001 V 841.92 H 8.871e-6 Z"
         id="path212"
         inkscape:connector-curvature="0"
         style="clip-rule:evenodd" /></clipPath><clipPath
       clipPathUnits="userSpaceOnUse"
       id="clipPath222"><path
         d="m 0,435.12 h 595.32 v 258 H 0 Z"
         id="path220"
         inkscape:connector-curvature="0"
         style="clip-rule:evenodd" /></clipPath><clipPath
       clipPathUnits="userSpaceOnUse"
       id="clipPath238"><path
         d="M 70.8,444.24 H 521.4 V 693.12 H 70.8 Z"
         id="path236"
         inkscape:connector-curvature="0"
         style="clip-rule:evenodd" /></clipPath><clipPath
       clipPathUnits="userSpaceOnUse"
       id="clipPath250"><path
         d="M 70.8,444.24 H 521.4 V 693.12 H 70.8 Z"
         id="path248"
         inkscape:connector-curvature="0"
         style="clip-rule:evenodd" /></clipPath><clipPath
       clipPathUnits="userSpaceOnUse"
       id="clipPath262"><path
         d="M 70.8,444.24 H 521.4 V 693.12 H 70.8 Z"
         id="path260"
         inkscape:connector-curvature="0"
         style="clip-rule:evenodd" /></clipPath><clipPath
       clipPathUnits="userSpaceOnUse"
       id="clipPath274"><path
         d="M 70.8,444.24 H 521.4 V 693.12 H 70.8 Z"
         id="path272"
         inkscape:connector-curvature="0"
         style="clip-rule:evenodd" /></clipPath><clipPath
       clipPathUnits="userSpaceOnUse"
       id="clipPath286"><path
         d="M 70.8,444.24 H 521.4 V 693.12 H 70.8 Z"
         id="path284"
         inkscape:connector-curvature="0"
         style="clip-rule:evenodd" /></clipPath><clipPath
       clipPathUnits="userSpaceOnUse"
       id="clipPath298"><path
         d="M 70.8,444.24 H 521.4 V 693.12 H 70.8 Z"
         id="path296"
         inkscape:connector-curvature="0"
         style="clip-rule:evenodd" /></clipPath><clipPath
       clipPathUnits="userSpaceOnUse"
       id="clipPath310"><path
         d="M 70.8,444.24 H 521.4 V 693.12 H 70.8 Z"
         id="path308"
         inkscape:connector-curvature="0"
         style="clip-rule:evenodd" /></clipPath><clipPath
       clipPathUnits="userSpaceOnUse"
       id="clipPath322"><path
         d="M 70.8,444.24 H 521.4 V 693.12 H 70.8 Z"
         id="path320"
         inkscape:connector-curvature="0"
         style="clip-rule:evenodd" /></clipPath><clipPath
       clipPathUnits="userSpaceOnUse"
       id="clipPath334"><path
         d="M 70.8,444.24 H 521.4 V 693.12 H 70.8 Z"
         id="path332"
         inkscape:connector-curvature="0"
         style="clip-rule:evenodd" /></clipPath><clipPath
       clipPathUnits="userSpaceOnUse"
       id="clipPath346"><path
         d="M 70.8,444.24 H 521.4 V 693.12 H 70.8 Z"
         id="path344"
         inkscape:connector-curvature="0"
         style="clip-rule:evenodd" /></clipPath><clipPath
       clipPathUnits="userSpaceOnUse"
       id="clipPath358"><path
         d="M 70.8,444.24 H 521.4 V 693.12 H 70.8 Z"
         id="path356"
         inkscape:connector-curvature="0"
         style="clip-rule:evenodd" /></clipPath><clipPath
       clipPathUnits="userSpaceOnUse"
       id="clipPath370"><path
         d="M 70.8,444.24 H 521.4 V 693.12 H 70.8 Z"
         id="path368"
         inkscape:connector-curvature="0"
         style="clip-rule:evenodd" /></clipPath><clipPath
       clipPathUnits="userSpaceOnUse"
       id="clipPath382"><path
         d="M 70.8,444.24 H 521.4 V 693.12 H 70.8 Z"
         id="path380"
         inkscape:connector-curvature="0"
         style="clip-rule:evenodd" /></clipPath><clipPath
       clipPathUnits="userSpaceOnUse"
       id="clipPath394"><path
         d="M 70.8,444.24 H 521.4 V 693.12 H 70.8 Z"
         id="path392"
         inkscape:connector-curvature="0"
         style="clip-rule:evenodd" /></clipPath><clipPath
       clipPathUnits="userSpaceOnUse"
       id="clipPath406"><path
         d="M 70.8,444.24 H 521.4 V 693.12 H 70.8 Z"
         id="path404"
         inkscape:connector-curvature="0"
         style="clip-rule:evenodd" /></clipPath><clipPath
       clipPathUnits="userSpaceOnUse"
       id="clipPath418"><path
         d="M 70.8,444.24 H 521.4 V 693.12 H 70.8 Z"
         id="path416"
         inkscape:connector-curvature="0"
         style="clip-rule:evenodd" /></clipPath><clipPath
       clipPathUnits="userSpaceOnUse"
       id="clipPath430"><path
         d="M 70.8,444.24 H 521.4 V 693.12 H 70.8 Z"
         id="path428"
         inkscape:connector-curvature="0"
         style="clip-rule:evenodd" /></clipPath><clipPath
       clipPathUnits="userSpaceOnUse"
       id="clipPath442"><path
         d="M 70.8,444.24 H 521.4 V 693.12 H 70.8 Z"
         id="path440"
         inkscape:connector-curvature="0"
         style="clip-rule:evenodd" /></clipPath><clipPath
       clipPathUnits="userSpaceOnUse"
       id="clipPath454"><path
         d="M 70.8,444.24 H 521.4 V 693.12 H 70.8 Z"
         id="path452"
         inkscape:connector-curvature="0"
         style="clip-rule:evenodd" /></clipPath><clipPath
       clipPathUnits="userSpaceOnUse"
       id="clipPath466"><path
         d="M 70.8,444.24 H 521.4 V 693.12 H 70.8 Z"
         id="path464"
         inkscape:connector-curvature="0"
         style="clip-rule:evenodd" /></clipPath><clipPath
       clipPathUnits="userSpaceOnUse"
       id="clipPath480"><path
         d="M 70.8,444.24 H 521.4 V 693.12 H 70.8 Z"
         id="path478"
         inkscape:connector-curvature="0"
         style="clip-rule:evenodd" /></clipPath><clipPath
       clipPathUnits="userSpaceOnUse"
       id="clipPath494"><path
         d="M 70.8,444.24 H 521.4 V 693.12 H 70.8 Z"
         id="path492"
         inkscape:connector-curvature="0"
         style="clip-rule:evenodd" /></clipPath></defs><sodipodi:namedview
     pagecolor="#ffffff"
     bordercolor="#666666"
     borderopacity="1"
     objecttolerance="10"
     gridtolerance="10"
     guidetolerance="10"
     inkscape:pageopacity="0"
     inkscape:pageshadow="2"
     inkscape:window-width="1920"
     inkscape:window-height="1003"
     id="namedview12"
     showgrid="false"
     inkscape:zoom="0.72156496"
     inkscape:cx="396.88"
     inkscape:cy="561.28003"
     inkscape:window-x="-9"
     inkscape:window-y="-9"
     inkscape:window-maximized="1"
     inkscape:current-layer="g18" /><g
     id="g18"
     inkscape:groupmode="layer"
     inkscape:label="Abbildung1_mitText"
     transform="matrix(1.3333333,0,0,-1.3333333,0,1122.56)"><g
       id="g20"><g
         id="g22"
         clip-path="url(#clipPath26)"><text
           transform="matrix(1,0,0,-1,70.824,757.78)"
           style="font-variant:normal;font-weight:bold;font-size:14.03999996px;font-family:Calibri;-inkscape-font-specification:Calibri-Bold;writing-mode:lr-tb;fill:#000000;fill-opacity:1;fill-rule:nonzero;stroke:none"
           id="text30"><tspan
             x="0 8.9856005 12.43944 19.305 26.844481 34.383961 41.488201 44.60508 52.04628 59.585758 66.563637 71.589958 74.706841 82.246323 85.728241 92.790359 95.963402 105.04728 109.96128 115.56324 122.44284 128.31155 135.85104 142.95528 150.49477 153.6678 161.20728 168.15707 173.75903 176.93208 184.61195 188.0658 191.43539 202.84991 209.78568 220.24548 227.06892 234.6084 242.06364 249.12576 252.60768"
             y="0"
             sodipodi:role="line"
             id="tspan28">Glaube über die Ursachen des Klimawandels</tspan></text>
</g></g><g
       id="g32"><g
         id="g34"
         clip-path="url(#clipPath38)" /></g><g
       id="g40"><g
         id="g42"
         clip-path="url(#clipPath46)"><text
           transform="matrix(1,0,0,-1,70.824,734.14)"
           style="font-style:italic;font-variant:normal;font-weight:normal;font-size:11.03999996px;font-family:Calibri;-inkscape-font-specification:Calibri-Italic;writing-mode:lr-tb;fill:#000000;fill-opacity:1;fill-rule:nonzero;stroke:none"
           id="text50"><tspan
             x="0 6.9662399 12.24336 16.559999 21.83712 24.37632 29.99568 33.69408 36.708 44.601601 47.030399 50.861279 56.50272 59.49456 65.136002 70.291679 74.122559 77.114403 82.755836 86.586723 92.250237 96.5448 101.82192 107.49648 111.19488 115.48944 121.02048 124.71888 129.07968 132.04944 137.69089 142.968 146.79887 149.79073 152.30785 157.58496 165.47856 170.75568 173.29488 175.83408 178.37328 183.99265 189.26976 194.94432 197.90305 204.74783 208.57872 214.22015 219.8616 225.50304 230.78017 233.54016 236.532 242.052 247.32912 251.16 254.15184 258.44641 264.12097 269.75137 273.3504 276.11041 279.10223 284.74368 290.38513 294.67969 299.0184 302.01025 307.65167 310.19089 315.33551 318.32736 323.71487 327.44641 335.34 341.01456 344.724 353.45663 359.1312 364.64017 370.28159 373.27344 378.91489 384.19199 388.02289 391.01471 396.29184 400.12271 405.76416 411.04129 413.91168 418.5816 424.97375 430.58209 433.94928 436.93008 442.57153 447.84863 453.36865"
             y="0"
             sodipodi:role="line"
             id="tspan48">Gezeigt wird der Prozentsatz der jeweiligen Gruppe, der sagt, dass die Erwärmung der Erde „Auf den </tspan></text>
</g></g><g
       id="g52"><g
         id="g54"
         clip-path="url(#clipPath58)"><text
           transform="matrix(1,0,0,-1,70.824,719.62)"
           style="font-style:italic;font-variant:normal;font-weight:normal;font-size:11.03999996px;font-family:Calibri;-inkscape-font-specification:Calibri-Italic;writing-mode:lr-tb;fill:#000000;fill-opacity:1;fill-rule:nonzero;stroke:none"
           id="text62"><tspan
             x="0 9.4723196 14.74944 20.424 24.718559 29.26704 34.908482 40.1856 45.860161 49.293598 53.610241 59.251678 63.082561 68.723999 73.316643 78.339844 82.645439 88.28688 91.654083 97.284477 102.92592 106.6464 111.92352 117.59808 122.12448 125.59104 128.13023 132.4248 136.1232 138.88319 142.26144 146.93137 153.32352 158.93184 162.29904 167.92944 171.76031 177.40176 183.0432 188.68465 192.1512 197.79263 203.43408 207.13248 212.67456 216.50545 219.04465 221.55072 226.14336 231.75168 237.02879 240.85968 244.2048 250.46448 256.08383 259.91473 265.55615 271.1976 276.83905 282.48047 287.7576 292.42752 295.89407 301.53552 306.69119 310.98575 315.5784 321.2088 323.74799 329.02512 334.64447 338.34286 341.83151 347.49503 353.11441 358.39151 362.112 365.45712 370.12704 375.51456 379.83121 383.29776 388.93921 391.47839 397.09775 400.69681 404.16336 409.18655 414.46368 417.00287 422.64432 427.79999 431.26657 436.28976 438.82895 444.4704 448.19089 453.34656"
             y="0"
             sodipodi:role="line"
             id="tspan60">Menschen zurückzuführen“ ist, „Aufgrund natürlicher Vorgänge“ geschieht oder „Es gibt keine klare </tspan></text>
</g></g><g
       id="g64"><g
         id="g66"
         clip-path="url(#clipPath70)"><text
           transform="matrix(1,0,0,-1,70.824,705.22)"
           style="font-style:italic;font-variant:normal;font-weight:normal;font-size:11.03999996px;font-family:Calibri;-inkscape-font-specification:Calibri-Italic;writing-mode:lr-tb;fill:#000000;fill-opacity:1;fill-rule:nonzero;stroke:none"
           id="text74"><tspan
             x="0 6.0057602 11.28288 19.176479 24.4536 26.9928 31.287359 33.826561 39.501122 45.12048 50.276161"
             y="0"
             sodipodi:role="line"
             id="tspan72">Beweislage“</tspan></text>
</g></g><g
       id="g76"><g
         id="g78"
         clip-path="url(#clipPath82)" /></g><g
       id="g84"><g
         id="g86"
         clip-path="url(#clipPath90)" /></g><g
       id="g92"><g
         id="g94"
         clip-path="url(#clipPath98)"><text
           transform="matrix(1,0,0,-1,70.824,426.41)"
           style="font-style:italic;font-variant:normal;font-weight:normal;font-size:9px;font-family:Calibri;-inkscape-font-specification:Calibri-Italic;writing-mode:lr-tb;fill:#808080;fill-opacity:1;fill-rule:nonzero;stroke:none"
           id="text102"><tspan
             x="0 5.5349998 7.5599999 11.862 15.363 19.665001 22.554001 27.711 32.382 37.053001 39.096001 41.139 45.810001 50.480999 55.152 59.823002 62.577 69.047997 73.719002 76.716003 81.387001 85.689003 88.578003 93.140999 97.811996 101.313 103.329 107.631 110.763 114.966 119.529 124.2 127.071 131.742 136.41299 139.158 141.92101 146.592 150.894 154.026 156.897 162.675 169.74001 172.485 175.608 180.17101 184.842 189.144 192.033 196.70399 201.006 204.507 207.37801 211.94099 216.243 222.73199 225.603 230.517 234.819 238.194 242.496 247.185 250.299 254.043 258.68701 261.55801 266.25601 270.55801 275.229 278.10901 282.41101 285.543 288.414 292.716 295.84799 299.349 302.328 306.63 308.70001 310.72501 313.73999 316.008 318.879 324.414 326.439 330.741 333.63 339.40799 346.47299 349.21799 352.341 356.90399 361.57501 365.87701 368.76599 373.43701 377.73901 379.80899 382.67099 388.44901"
             y="0"
             sodipodi:role="line"
             id="tspan100">Diese Abbildung wurde basierend auf der Umfrage des Pew Research Center erstellt. Die Umfrage bei US</tspan></text>
</g></g><g
       id="g104"><g
         id="g106"
         clip-path="url(#clipPath110)"><text
           transform="matrix(1,0,0,-1,463.78,426.41)"
           style="font-style:italic;font-variant:normal;font-weight:normal;font-size:9px;font-family:Calibri;-inkscape-font-specification:Calibri-Italic;writing-mode:lr-tb;fill:#808080;fill-opacity:1;fill-rule:nonzero;stroke:none"
           id="text114"><tspan
             x="0"
             y="0"
             id="tspan112">-</tspan></text>
</g></g><g
       id="g116"><g
         id="g118"
         clip-path="url(#clipPath122)"><text
           transform="matrix(1,0,0,-1,466.54,426.41)"
           style="font-style:italic;font-variant:normal;font-weight:normal;font-size:9px;font-family:Calibri;-inkscape-font-specification:Calibri-Italic;writing-mode:lr-tb;fill:#808080;fill-opacity:1;fill-rule:nonzero;stroke:none"
           id="text126"><tspan
             x="0 5.1570001 12.24 16.542 19.674 21.716999 25.812 30.465 35.136002 37.179001 40.68 44.379002 49.049999 53.252998 57.924"
             y="0"
             sodipodi:role="line"
             id="tspan124">Amerikanischen </tspan></text>
</g></g><g
       id="g128"><g
         id="g130"
         clip-path="url(#clipPath134)"><text
           transform="matrix(1,0,0,-1,70.824,414.53)"
           style="font-style:italic;font-variant:normal;font-weight:normal;font-size:9px;font-family:Calibri;-inkscape-font-specification:Calibri-Italic;writing-mode:lr-tb;fill:#808080;fill-opacity:1;fill-rule:nonzero;stroke:none"
           id="text138"><tspan
             x="0 4.428 7.5419998 14.013 18.684 22.284 26.955 30.455999 34.757999 39.429001 43.632 48.303001 50.103001 52.740002 57.410999 61.973999 66.644997 68.328003 71.918999 78.389999 80.432999 83.933998 87.633003 92.304001 96.606003 101.187 102.987 107.55 111.852 118.971 120.627 125.19"
             y="0"
             sodipodi:role="line"
             id="tspan136">Erwachsenen fand zwischen dem 15</tspan></text>
</g></g><g
       id="g140"><g
         id="g142"
         clip-path="url(#clipPath146)"><text
           transform="matrix(1,0,0,-1,200.69,414.53)"
           style="font-style:italic;font-variant:normal;font-weight:normal;font-size:9px;font-family:Calibri;-inkscape-font-specification:Calibri-Italic;writing-mode:lr-tb;fill:#808080;fill-opacity:1;fill-rule:nonzero;stroke:none"
           id="text150"><tspan
             x="0"
             y="0"
             id="tspan148">-</tspan></text>
</g></g><g
       id="g152"><g
         id="g154"
         clip-path="url(#clipPath158)"><text
           transform="matrix(1,0,0,-1,203.45,414.53)"
           style="font-style:italic;font-variant:normal;font-weight:normal;font-size:9px;font-family:Calibri;-inkscape-font-specification:Calibri-Italic;writing-mode:lr-tb;fill:#808080;fill-opacity:1;fill-rule:nonzero;stroke:none"
           id="text162"><tspan
             x="0 4.5630002 9.1260004 11.394 15.957 20.52 22.788 27.351 31.914 36.477001 41.040001 42.84 46.341 49.32 53.991001 57.006001 59.993999 61.793999 66.357002 71.028 75.591003 77.390999 82.061996 84.105003 88.307999 90.108002 94.778999 98.982002 102.096 103.896 108.936 114.093 119.25 123.318 125.127 133.155 135.198 138.69901 142.155 146.457 151.146 154.647 158.34599 163.017 167.688 170.433 173.448 175.491 179.793 182.925 184.608 188.19901 194.67 196.713 200.214 203.91299 208.584 212.886 217.467 219.267 223.83 228.39301 230.54401 235.10699 239.67 241.938 246.50101 251.064 255.627 260.19 261.98099 266.65201 271.215 275.88599 277.686 282.24899 286.81201 289.07999 293.64301 298.20599 300.474 305.03699 309.60001 314.16299 318.72601 320.88599"
             y="0"
             sodipodi:role="line"
             id="tspan160">25.08.2014 statt und die der AAAS Wissenschaftler zwischen 11.09.2014 und 13.10.2014. </tspan></text>
</g></g><g
       id="g164"><g
         id="g166"
         clip-path="url(#clipPath170)"><text
           transform="matrix(1,0,0,-1,70.824,402.77)"
           style="font-style:italic;font-variant:normal;font-weight:normal;font-size:9px;font-family:Calibri;-inkscape-font-specification:Calibri-Italic;writing-mode:lr-tb;fill:#808080;fill-opacity:1;fill-rule:nonzero;stroke:none"
           id="text174"><tspan
             x="0 5.5349998 7.5599999 11.862 13.896 18.594 22.896 26.028 29.528999 34.064999 38.736 43.037998 47.727001 49.994999 51.911999 56.583 58.625999 62.928001 64.961998 72.081001 74.106003"
             y="0"
             sodipodi:role="line"
             id="tspan172">Die Personen, die mit</tspan></text>
</g></g><g
       id="g176"><g
         id="g178"
         clip-path="url(#clipPath182)" /></g><g
       id="g184"><g
         id="g186"
         clip-path="url(#clipPath190)"><text
           transform="matrix(1,0,0,-1,150.02,402.77)"
           style="font-style:italic;font-variant:normal;font-weight:normal;font-size:9px;font-family:Calibri;-inkscape-font-specification:Calibri-Italic;writing-mode:lr-tb;fill:#808080;fill-opacity:1;fill-rule:nonzero;stroke:none"
           id="text194"><tspan
             x="0 3.717 5.9850001 9.7290001 14.391 16.424999 22.905001 27.207001 29.277 34.056 36.09 40.77 42.687 46.431 51.075001 54.09 57.798 59.832001 64.512001 69.182999 72.197998 78.651001 83.213997 86.328003 89.343002 93.644997 96.660004 100.962 105.525 107.793 109.827 113.328 115.353 120.024 124.695 126.612 131.283 133.326 137.07001 141.714 144.729 146.763 151.425 155.98801 160.659 164.862 169.533 171.576 173.619 178.28999 182.592"
             y="0"
             sodipodi:role="line"
             id="tspan192">„Ich weiß nicht“ antworteten, sind nicht abgebildet</tspan></text>
</g></g><g
       id="g196"><g
         id="g198"
         clip-path="url(#clipPath202)"><text
           transform="matrix(1,0,0,-1,335.83,402.77)"
           style="font-style:italic;font-variant:normal;font-weight:normal;font-size:9px;font-family:Calibri;-inkscape-font-specification:Calibri-Italic;writing-mode:lr-tb;fill:#808080;fill-opacity:1;fill-rule:nonzero;stroke:none"
           id="text206"><tspan
             x="0"
             y="0"
             id="tspan204">.</tspan></text>
</g></g><g
       id="g208"><g
         id="g210"
         clip-path="url(#clipPath214)" /></g><path
       d="m 222.24,505.44 h -8.75 v 16.8 h 8.75 z m 17.4,63.96 h -26.15 v 16.8 h 26.15 z m 226.2,63.96 H 213.49 v 16.8 h 252.35 z"
       style="fill:#3b64ad;fill-opacity:1;fill-rule:nonzero;stroke:none"
       id="path226"
       inkscape:connector-curvature="0" /><path
       d="m 285.96,522.24 h -72.47 v 16.68 h 72.47 z m -5.76,63.96 h -66.71 v 16.68 h 66.71 z m 78.36,63.96 H 213.49 v 16.8 h 145.07 z"
       style="fill:#8fa2d4;fill-opacity:1;fill-rule:nonzero;stroke:none"
       id="path228"
       inkscape:connector-curvature="0" /><path
       d="M 213.49,490.23 V 682.15"
       style="fill:none;stroke:#d9d9d9;stroke-width:0.75;stroke-linecap:butt;stroke-linejoin:round;stroke-miterlimit:10;stroke-dasharray:none;stroke-opacity:1"
       id="path230"
       inkscape:connector-curvature="0" /><g
       id="g232"><g
         id="g234"
         clip-path="url(#clipPath238)"><text
           transform="matrix(1,0,0,-1,228.17,510.77)"
           style="font-variant:normal;font-weight:normal;font-size:9px;font-family:Calibri;-inkscape-font-specification:Calibri;writing-mode:lr-tb;fill:#404040;fill-opacity:1;fill-rule:nonzero;stroke:none"
           id="text242"><tspan
             x="0"
             y="0"
             id="tspan240">3</tspan></text>
</g></g><g
       id="g244"><g
         id="g246"
         clip-path="url(#clipPath250)"><text
           transform="matrix(1,0,0,-1,245.59,574.75)"
           style="font-variant:normal;font-weight:normal;font-size:9px;font-family:Calibri;-inkscape-font-specification:Calibri;writing-mode:lr-tb;fill:#404040;fill-opacity:1;fill-rule:nonzero;stroke:none"
           id="text254"><tspan
             x="0"
             y="0"
             id="tspan252">9</tspan></text>
</g></g><g
       id="g256"><g
         id="g258"
         clip-path="url(#clipPath262)"><text
           transform="matrix(1,0,0,-1,471.91,638.74)"
           style="font-variant:normal;font-weight:normal;font-size:9px;font-family:Calibri;-inkscape-font-specification:Calibri;writing-mode:lr-tb;fill:#404040;fill-opacity:1;fill-rule:nonzero;stroke:none"
           id="text266"><tspan
             x="0 4.5599999"
             y="0"
             sodipodi:role="line"
             id="tspan264">87</tspan></text>
</g></g><g
       id="g268"><g
         id="g270"
         clip-path="url(#clipPath274)"><text
           transform="matrix(1,0,0,-1,292.01,527.52)"
           style="font-variant:normal;font-weight:normal;font-size:9px;font-family:Calibri;-inkscape-font-specification:Calibri;writing-mode:lr-tb;fill:#404040;fill-opacity:1;fill-rule:nonzero;stroke:none"
           id="text278"><tspan
             x="0 4.5599999"
             y="0"
             sodipodi:role="line"
             id="tspan276">25</tspan></text>
</g></g><g
       id="g280"><g
         id="g282"
         clip-path="url(#clipPath286)"><text
           transform="matrix(1,0,0,-1,286.2,591.5)"
           style="font-variant:normal;font-weight:normal;font-size:9px;font-family:Calibri;-inkscape-font-specification:Calibri;writing-mode:lr-tb;fill:#404040;fill-opacity:1;fill-rule:nonzero;stroke:none"
           id="text290"><tspan
             x="0 4.5599999"
             y="0"
             sodipodi:role="line"
             id="tspan288">23</tspan></text>
</g></g><g
       id="g292"><g
         id="g294"
         clip-path="url(#clipPath298)"><text
           transform="matrix(1,0,0,-1,364.56,655.49)"
           style="font-variant:normal;font-weight:normal;font-size:9px;font-family:Calibri;-inkscape-font-specification:Calibri;writing-mode:lr-tb;fill:#404040;fill-opacity:1;fill-rule:nonzero;stroke:none"
           id="text302"><tspan
             x="0 4.5599999"
             y="0"
             sodipodi:role="line"
             id="tspan300">50</tspan></text>
</g></g><g
       id="g304"><g
         id="g306"
         clip-path="url(#clipPath310)"><text
           transform="matrix(1,0,0,-1,211.25,475.94)"
           style="font-variant:normal;font-weight:normal;font-size:9px;font-family:Calibri;-inkscape-font-specification:Calibri;writing-mode:lr-tb;fill:#595959;fill-opacity:1;fill-rule:nonzero;stroke:none"
           id="text314"><tspan
             x="0"
             y="0"
             id="tspan312">0</tspan></text>
</g></g><g
       id="g316"><g
         id="g318"
         clip-path="url(#clipPath322)"><text
           transform="matrix(1,0,0,-1,237.98,475.94)"
           style="font-variant:normal;font-weight:normal;font-size:9px;font-family:Calibri;-inkscape-font-specification:Calibri;writing-mode:lr-tb;fill:#595959;fill-opacity:1;fill-rule:nonzero;stroke:none"
           id="text326"><tspan
             x="0 4.5599999"
             y="0"
             sodipodi:role="line"
             id="tspan324">10</tspan></text>
</g></g><g
       id="g328"><g
         id="g330"
         clip-path="url(#clipPath334)"><text
           transform="matrix(1,0,0,-1,267,475.94)"
           style="font-variant:normal;font-weight:normal;font-size:9px;font-family:Calibri;-inkscape-font-specification:Calibri;writing-mode:lr-tb;fill:#595959;fill-opacity:1;fill-rule:nonzero;stroke:none"
           id="text338"><tspan
             x="0 4.5599999"
             y="0"
             sodipodi:role="line"
             id="tspan336">20</tspan></text>
</g></g><g
       id="g340"><g
         id="g342"
         clip-path="url(#clipPath346)"><text
           transform="matrix(1,0,0,-1,296.02,475.94)"
           style="font-variant:normal;font-weight:normal;font-size:9px;font-family:Calibri;-inkscape-font-specification:Calibri;writing-mode:lr-tb;fill:#595959;fill-opacity:1;fill-rule:nonzero;stroke:none"
           id="text350"><tspan
             x="0 4.5599999"
             y="0"
             sodipodi:role="line"
             id="tspan348">30</tspan></text>
</g></g><g
       id="g352"><g
         id="g354"
         clip-path="url(#clipPath358)"><text
           transform="matrix(1,0,0,-1,325.03,475.94)"
           style="font-variant:normal;font-weight:normal;font-size:9px;font-family:Calibri;-inkscape-font-specification:Calibri;writing-mode:lr-tb;fill:#595959;fill-opacity:1;fill-rule:nonzero;stroke:none"
           id="text362"><tspan
             x="0 4.5599999"
             y="0"
             sodipodi:role="line"
             id="tspan360">40</tspan></text>
</g></g><g
       id="g364"><g
         id="g366"
         clip-path="url(#clipPath370)"><text
           transform="matrix(1,0,0,-1,354.05,475.94)"
           style="font-variant:normal;font-weight:normal;font-size:9px;font-family:Calibri;-inkscape-font-specification:Calibri;writing-mode:lr-tb;fill:#595959;fill-opacity:1;fill-rule:nonzero;stroke:none"
           id="text374"><tspan
             x="0 4.5599999"
             y="0"
             sodipodi:role="line"
             id="tspan372">50</tspan></text>
</g></g><g
       id="g376"><g
         id="g378"
         clip-path="url(#clipPath382)"><text
           transform="matrix(1,0,0,-1,383.06,475.94)"
           style="font-variant:normal;font-weight:normal;font-size:9px;font-family:Calibri;-inkscape-font-specification:Calibri;writing-mode:lr-tb;fill:#595959;fill-opacity:1;fill-rule:nonzero;stroke:none"
           id="text386"><tspan
             x="0 4.5599999"
             y="0"
             sodipodi:role="line"
             id="tspan384">60</tspan></text>
</g></g><g
       id="g388"><g
         id="g390"
         clip-path="url(#clipPath394)"><text
           transform="matrix(1,0,0,-1,412.08,475.94)"
           style="font-variant:normal;font-weight:normal;font-size:9px;font-family:Calibri;-inkscape-font-specification:Calibri;writing-mode:lr-tb;fill:#595959;fill-opacity:1;fill-rule:nonzero;stroke:none"
           id="text398"><tspan
             x="0 4.5599999"
             y="0"
             sodipodi:role="line"
             id="tspan396">70</tspan></text>
</g></g><g
       id="g400"><g
         id="g402"
         clip-path="url(#clipPath406)"><text
           transform="matrix(1,0,0,-1,441.12,475.94)"
           style="font-variant:normal;font-weight:normal;font-size:9px;font-family:Calibri;-inkscape-font-specification:Calibri;writing-mode:lr-tb;fill:#595959;fill-opacity:1;fill-rule:nonzero;stroke:none"
           id="text410"><tspan
             x="0 4.5599999"
             y="0"
             sodipodi:role="line"
             id="tspan408">80</tspan></text>
</g></g><g
       id="g412"><g
         id="g414"
         clip-path="url(#clipPath418)"><text
           transform="matrix(1,0,0,-1,470.14,475.94)"
           style="font-variant:normal;font-weight:normal;font-size:9px;font-family:Calibri;-inkscape-font-specification:Calibri;writing-mode:lr-tb;fill:#595959;fill-opacity:1;fill-rule:nonzero;stroke:none"
           id="text422"><tspan
             x="0 4.5599999"
             y="0"
             sodipodi:role="line"
             id="tspan420">90</tspan></text>
</g></g><g
       id="g424"><g
         id="g426"
         clip-path="url(#clipPath430)"><text
           transform="matrix(1,0,0,-1,496.87,475.94)"
           style="font-variant:normal;font-weight:normal;font-size:9px;font-family:Calibri;-inkscape-font-specification:Calibri;writing-mode:lr-tb;fill:#595959;fill-opacity:1;fill-rule:nonzero;stroke:none"
           id="text434"><tspan
             x="0 4.5599999 9.1199999"
             y="0"
             sodipodi:role="line"
             id="tspan432">100</tspan></text>
</g></g><g
       id="g436"><g
         id="g438"
         clip-path="url(#clipPath442)"><text
           transform="matrix(1,0,0,-1,96.168,519.65)"
           style="font-variant:normal;font-weight:normal;font-size:9px;font-family:Calibri;-inkscape-font-specification:Calibri;writing-mode:lr-tb;fill:#595959;fill-opacity:1;fill-rule:nonzero;stroke:none"
           id="text446"><tspan
             x="0 4.428 7.9109998 9.9449997 14.148 16.191 20.979 23.993999 26.028 30.122999 34.542 36.693001 41.373001 45.810001 47.844002 51.938999 54.081001 58.284 61.514999 65.952003 67.986 72.900002 77.336998 83.807999 88.245003 90.288002 93.878998 95.921997 100.233 104.445"
             y="0"
             sodipodi:role="line"
             id="tspan444">Es gibt keine klare Beweislage</tspan></text>
</g></g><g
       id="g448"><g
         id="g450"
         clip-path="url(#clipPath454)"><text
           transform="matrix(1,0,0,-1,91.656,583.63)"
           style="font-variant:normal;font-weight:normal;font-size:9px;font-family:Calibri;-inkscape-font-specification:Calibri;writing-mode:lr-tb;fill:#595959;fill-opacity:1;fill-rule:nonzero;stroke:none"
           id="text458"><tspan
             x="0 5.1570001 9.9449997 12.69 16.929001 20.025 24.813 29.493 34.173 36.207001 41.004002 45.314999 48.330002 53.000999 56.141998 58.275002 60.318001 64.152 68.832001 73.268997 76.410004 78.444 83.583 88.371002 91.512001 95.688004 99.999001 104.688 108.999"
             y="0"
             sodipodi:role="line"
             id="tspan456">Aufgrund natürlicher Vorgänge</tspan></text>
</g></g><g
       id="g460"><g
         id="g462"
         clip-path="url(#clipPath466)"><text
           transform="matrix(1,0,0,-1,77.376,647.62)"
           style="font-variant:normal;font-weight:normal;font-size:9px;font-family:Calibri;-inkscape-font-specification:Calibri;writing-mode:lr-tb;fill:#595959;fill-opacity:1;fill-rule:nonzero;stroke:none"
           id="text470"><tspan
             x="0 5.1570001 9.9449997 12.69 14.724 19.448999 23.868 28.656 30.690001 38.384998 42.813 47.601002 51.084 54.917999 59.598 64.035004 68.822998 70.857002 74.339996 79.127998 82.268997 86.931 90.764999 94.860001 98.432999 103.113 105.858 110.664 115.344 118.485 123.012"
             y="0"
             sodipodi:role="line"
             id="tspan468">Auf den Menschen zurückzuführen</tspan></text>
</g></g><path
       d="m 186.17,456.12 h 4.9433 v 4.9433 H 186.17 Z"
       style="fill:#8fa2d4;fill-opacity:1;fill-rule:evenodd;stroke:none"
       id="path472"
       inkscape:connector-curvature="0" /><g
       id="g474"><g
         id="g476"
         clip-path="url(#clipPath480)"><text
           transform="matrix(1,0,0,-1,193.25,456)"
           style="font-variant:normal;font-weight:normal;font-size:9px;font-family:Calibri;-inkscape-font-specification:Calibri;writing-mode:lr-tb;fill:#595959;fill-opacity:1;fill-rule:nonzero;stroke:none"
           id="text484"><tspan
             x="0 5.7779999 9.9540005 12.708 17.874001 25.065001 29.511 32.652 34.785 38.880001 43.191002 47.862 49.904999 53.495998 57.213001 62.000999 66.438004 68.472 72.908997 76.050003 82.386002 86.696999 90.540001 95.220001 98.810997 103.248 108.036"
             y="0"
             sodipodi:role="line"
             id="tspan482">US-Amerikanische Erwachsene</tspan></text>
</g></g><path
       d="m 322.75,456.12 h 4.9433 v 4.9433 H 322.75 Z"
       style="fill:#3b64ad;fill-opacity:1;fill-rule:evenodd;stroke:none"
       id="path486"
       inkscape:connector-curvature="0" /><g
       id="g488"><g
         id="g490"
         clip-path="url(#clipPath494)"><text
           transform="matrix(1,0,0,-1,329.86,456)"
           style="font-variant:normal;font-weight:normal;font-size:9px;font-family:Calibri;-inkscape-font-specification:Calibri;writing-mode:lr-tb;fill:#595959;fill-opacity:1;fill-rule:nonzero;stroke:none"
           id="text498"><tspan
             x="0 5.1570001 10.431 15.588 19.782 21.816 29.745001 31.896 35.379002 38.862 43.416 48.096001 51.578999 55.412998 60.092999 64.403999 67.149002 70.164001 72.323997 76.761002"
             y="0"
             sodipodi:role="line"
             id="tspan496">AAAS Wissenschaftler</tspan></text>
</g></g></g></svg>