<?xml version="1.0" encoding="UTF-8" standalone="no"?>
<!-- Created with Inkscape (http://www.inkscape.org/) -->

<svg
   xmlns:dc="http://purl.org/dc/elements/1.1/"
   xmlns:cc="http://creativecommons.org/ns#"
   xmlns:rdf="http://www.w3.org/1999/02/22-rdf-syntax-ns#"
   xmlns:svg="http://www.w3.org/2000/svg"
   xmlns="http://www.w3.org/2000/svg"
   xmlns:sodipodi="http://sodipodi.sourceforge.net/DTD/sodipodi-0.dtd"
   xmlns:inkscape="http://www.inkscape.org/namespaces/inkscape"
   version="1.1"
   id="svg10"
   xml:space="preserve"
   width="793.76001"
   height="1122.5601"
   viewBox="0 0 793.76001 1122.5601"
   sodipodi:docname="Abbildung3_mitText_Seite2.svg"
   inkscape:version="0.92.1 r15371"><metadata
     id="metadata16"><rdf:RDF><cc:Work
         rdf:about=""><dc:format>image/svg+xml</dc:format><dc:type
           rdf:resource="http://purl.org/dc/dcmitype/StillImage" /><dc:title></dc:title></cc:Work></rdf:RDF></metadata><defs
     id="defs14"><clipPath
       clipPathUnits="userSpaceOnUse"
       id="clipPath26"><path
         d="M 8.871e-6,0 H 595.32001 V 841.92 H 8.871e-6 Z"
         id="path24"
         inkscape:connector-curvature="0"
         style="clip-rule:evenodd" /></clipPath><clipPath
       clipPathUnits="userSpaceOnUse"
       id="clipPath34"><path
         d="M 8.871e-6,0 H 595.32001 V 841.92 H 8.871e-6 Z"
         id="path32"
         inkscape:connector-curvature="0"
         style="clip-rule:evenodd" /></clipPath><clipPath
       clipPathUnits="userSpaceOnUse"
       id="clipPath42"><path
         d="M 8.871e-6,0 H 595.32001 V 841.92 H 8.871e-6 Z"
         id="path40"
         inkscape:connector-curvature="0"
         style="clip-rule:evenodd" /></clipPath><clipPath
       clipPathUnits="userSpaceOnUse"
       id="clipPath50"><path
         d="M 8.871e-6,0 H 595.32001 V 841.92 H 8.871e-6 Z"
         id="path48"
         inkscape:connector-curvature="0"
         style="clip-rule:evenodd" /></clipPath><clipPath
       clipPathUnits="userSpaceOnUse"
       id="clipPath58"><path
         d="M 8.871e-6,0 H 595.32001 V 841.92 H 8.871e-6 Z"
         id="path56"
         inkscape:connector-curvature="0"
         style="clip-rule:evenodd" /></clipPath><clipPath
       clipPathUnits="userSpaceOnUse"
       id="clipPath66"><path
         d="M 8.871e-6,0 H 595.32001 V 841.92 H 8.871e-6 Z"
         id="path64"
         inkscape:connector-curvature="0"
         style="clip-rule:evenodd" /></clipPath><clipPath
       clipPathUnits="userSpaceOnUse"
       id="clipPath74"><path
         d="M 8.871e-6,0 H 595.32001 V 841.92 H 8.871e-6 Z"
         id="path72"
         inkscape:connector-curvature="0"
         style="clip-rule:evenodd" /></clipPath><clipPath
       clipPathUnits="userSpaceOnUse"
       id="clipPath82"><path
         d="M 8.871e-6,0 H 595.32001 V 841.92 H 8.871e-6 Z"
         id="path80"
         inkscape:connector-curvature="0"
         style="clip-rule:evenodd" /></clipPath><clipPath
       clipPathUnits="userSpaceOnUse"
       id="clipPath90"><path
         d="M 8.871e-6,0 H 595.32001 V 841.92 H 8.871e-6 Z"
         id="path88"
         inkscape:connector-curvature="0"
         style="clip-rule:evenodd" /></clipPath><clipPath
       clipPathUnits="userSpaceOnUse"
       id="clipPath98"><path
         d="M 8.871e-6,0 H 595.32001 V 841.92 H 8.871e-6 Z"
         id="path96"
         inkscape:connector-curvature="0"
         style="clip-rule:evenodd" /></clipPath><clipPath
       clipPathUnits="userSpaceOnUse"
       id="clipPath106"><path
         d="M 8.871e-6,0 H 595.32001 V 841.92 H 8.871e-6 Z"
         id="path104"
         inkscape:connector-curvature="0"
         style="clip-rule:evenodd" /></clipPath><clipPath
       clipPathUnits="userSpaceOnUse"
       id="clipPath114"><path
         d="M 8.871e-6,0 H 595.32001 V 841.92 H 8.871e-6 Z"
         id="path112"
         inkscape:connector-curvature="0"
         style="clip-rule:evenodd" /></clipPath><clipPath
       clipPathUnits="userSpaceOnUse"
       id="clipPath122"><path
         d="M 8.871e-6,0 H 595.32001 V 841.92 H 8.871e-6 Z"
         id="path120"
         inkscape:connector-curvature="0"
         style="clip-rule:evenodd" /></clipPath><clipPath
       clipPathUnits="userSpaceOnUse"
       id="clipPath130"><path
         d="M 8.871e-6,0 H 595.32001 V 841.92 H 8.871e-6 Z"
         id="path128"
         inkscape:connector-curvature="0"
         style="clip-rule:evenodd" /></clipPath><clipPath
       clipPathUnits="userSpaceOnUse"
       id="clipPath138"><path
         d="M 8.871e-6,0 H 595.32001 V 841.92 H 8.871e-6 Z"
         id="path136"
         inkscape:connector-curvature="0"
         style="clip-rule:evenodd" /></clipPath><clipPath
       clipPathUnits="userSpaceOnUse"
       id="clipPath146"><path
         d="M 8.871e-6,0 H 595.32001 V 841.92 H 8.871e-6 Z"
         id="path144"
         inkscape:connector-curvature="0"
         style="clip-rule:evenodd" /></clipPath><clipPath
       clipPathUnits="userSpaceOnUse"
       id="clipPath158"><path
         d="M 8.871e-6,0 H 595.32001 V 841.92 H 8.871e-6 Z"
         id="path156"
         inkscape:connector-curvature="0"
         style="clip-rule:evenodd" /></clipPath><clipPath
       clipPathUnits="userSpaceOnUse"
       id="clipPath170"><path
         d="M 8.871e-6,0 H 595.32001 V 841.92 H 8.871e-6 Z"
         id="path168"
         inkscape:connector-curvature="0"
         style="clip-rule:evenodd" /></clipPath><clipPath
       clipPathUnits="userSpaceOnUse"
       id="clipPath182"><path
         d="M 8.871e-6,0 H 595.32001 V 841.92 H 8.871e-6 Z"
         id="path180"
         inkscape:connector-curvature="0"
         style="clip-rule:evenodd" /></clipPath><clipPath
       clipPathUnits="userSpaceOnUse"
       id="clipPath190"><path
         d="M 8.871e-6,0 H 595.32001 V 841.92 H 8.871e-6 Z"
         id="path188"
         inkscape:connector-curvature="0"
         style="clip-rule:evenodd" /></clipPath><clipPath
       clipPathUnits="userSpaceOnUse"
       id="clipPath202"><path
         d="M 8.871e-6,0 H 595.32001 V 841.92 H 8.871e-6 Z"
         id="path200"
         inkscape:connector-curvature="0"
         style="clip-rule:evenodd" /></clipPath><clipPath
       clipPathUnits="userSpaceOnUse"
       id="clipPath214"><path
         d="M 8.871e-6,0 H 595.32001 V 841.92 H 8.871e-6 Z"
         id="path212"
         inkscape:connector-curvature="0"
         style="clip-rule:evenodd" /></clipPath><clipPath
       clipPathUnits="userSpaceOnUse"
       id="clipPath226"><path
         d="M 8.871e-6,0 H 595.32001 V 841.92 H 8.871e-6 Z"
         id="path224"
         inkscape:connector-curvature="0"
         style="clip-rule:evenodd" /></clipPath><clipPath
       clipPathUnits="userSpaceOnUse"
       id="clipPath238"><path
         d="M 8.871e-6,0 H 595.32001 V 841.92 H 8.871e-6 Z"
         id="path236"
         inkscape:connector-curvature="0"
         style="clip-rule:evenodd" /></clipPath><clipPath
       clipPathUnits="userSpaceOnUse"
       id="clipPath250"><path
         d="M 8.871e-6,0 H 595.32001 V 841.92 H 8.871e-6 Z"
         id="path248"
         inkscape:connector-curvature="0"
         style="clip-rule:evenodd" /></clipPath><clipPath
       clipPathUnits="userSpaceOnUse"
       id="clipPath262"><path
         d="M 8.871e-6,0 H 595.32001 V 841.92 H 8.871e-6 Z"
         id="path260"
         inkscape:connector-curvature="0"
         style="clip-rule:evenodd" /></clipPath><clipPath
       clipPathUnits="userSpaceOnUse"
       id="clipPath274"><path
         d="M 8.871e-6,0 H 595.32001 V 841.92 H 8.871e-6 Z"
         id="path272"
         inkscape:connector-curvature="0"
         style="clip-rule:evenodd" /></clipPath><clipPath
       clipPathUnits="userSpaceOnUse"
       id="clipPath286"><path
         d="M 8.871e-6,0 H 595.32001 V 841.92 H 8.871e-6 Z"
         id="path284"
         inkscape:connector-curvature="0"
         style="clip-rule:evenodd" /></clipPath><clipPath
       clipPathUnits="userSpaceOnUse"
       id="clipPath298"><path
         d="M 8.871e-6,0 H 595.32001 V 841.92 H 8.871e-6 Z"
         id="path296"
         inkscape:connector-curvature="0"
         style="clip-rule:evenodd" /></clipPath><clipPath
       clipPathUnits="userSpaceOnUse"
       id="clipPath310"><path
         d="M 8.871e-6,0 H 595.32001 V 841.92 H 8.871e-6 Z"
         id="path308"
         inkscape:connector-curvature="0"
         style="clip-rule:evenodd" /></clipPath><clipPath
       clipPathUnits="userSpaceOnUse"
       id="clipPath322"><path
         d="M 8.871e-6,0 H 595.32001 V 841.92 H 8.871e-6 Z"
         id="path320"
         inkscape:connector-curvature="0"
         style="clip-rule:evenodd" /></clipPath><clipPath
       clipPathUnits="userSpaceOnUse"
       id="clipPath338"><path
         d="m 70.8,544.32 h 212.52 v 226.8 H 70.8 Z"
         id="path336"
         inkscape:connector-curvature="0"
         style="clip-rule:evenodd" /></clipPath><clipPath
       clipPathUnits="userSpaceOnUse"
       id="clipPath350"><path
         d="m 70.8,544.32 h 212.52 v 226.8 H 70.8 Z"
         id="path348"
         inkscape:connector-curvature="0"
         style="clip-rule:evenodd" /></clipPath><clipPath
       clipPathUnits="userSpaceOnUse"
       id="clipPath362"><path
         d="m 70.8,544.32 h 212.52 v 226.8 H 70.8 Z"
         id="path360"
         inkscape:connector-curvature="0"
         style="clip-rule:evenodd" /></clipPath><clipPath
       clipPathUnits="userSpaceOnUse"
       id="clipPath374"><path
         d="m 70.8,544.32 h 212.52 v 226.8 H 70.8 Z"
         id="path372"
         inkscape:connector-curvature="0"
         style="clip-rule:evenodd" /></clipPath><clipPath
       clipPathUnits="userSpaceOnUse"
       id="clipPath386"><path
         d="m 70.8,544.32 h 212.52 v 226.8 H 70.8 Z"
         id="path384"
         inkscape:connector-curvature="0"
         style="clip-rule:evenodd" /></clipPath><clipPath
       clipPathUnits="userSpaceOnUse"
       id="clipPath398"><path
         d="m 70.8,544.32 h 212.52 v 226.8 H 70.8 Z"
         id="path396"
         inkscape:connector-curvature="0"
         style="clip-rule:evenodd" /></clipPath><clipPath
       clipPathUnits="userSpaceOnUse"
       id="clipPath410"><path
         d="m 70.8,544.32 h 212.52 v 226.8 H 70.8 Z"
         id="path408"
         inkscape:connector-curvature="0"
         style="clip-rule:evenodd" /></clipPath><clipPath
       clipPathUnits="userSpaceOnUse"
       id="clipPath422"><path
         d="m 70.8,544.32 h 212.52 v 226.8 H 70.8 Z"
         id="path420"
         inkscape:connector-curvature="0"
         style="clip-rule:evenodd" /></clipPath><clipPath
       clipPathUnits="userSpaceOnUse"
       id="clipPath434"><path
         d="m 70.8,544.32 h 212.52 v 226.8 H 70.8 Z"
         id="path432"
         inkscape:connector-curvature="0"
         style="clip-rule:evenodd" /></clipPath><clipPath
       clipPathUnits="userSpaceOnUse"
       id="clipPath446"><path
         d="m 70.8,544.32 h 212.52 v 226.8 H 70.8 Z"
         id="path444"
         inkscape:connector-curvature="0"
         style="clip-rule:evenodd" /></clipPath><clipPath
       clipPathUnits="userSpaceOnUse"
       id="clipPath458"><path
         d="m 70.8,544.32 h 212.52 v 226.8 H 70.8 Z"
         id="path456"
         inkscape:connector-curvature="0"
         style="clip-rule:evenodd" /></clipPath><clipPath
       clipPathUnits="userSpaceOnUse"
       id="clipPath470"><path
         d="m 70.8,544.32 h 212.52 v 226.8 H 70.8 Z"
         id="path468"
         inkscape:connector-curvature="0"
         style="clip-rule:evenodd" /></clipPath><clipPath
       clipPathUnits="userSpaceOnUse"
       id="clipPath484"><path
         d="m 70.8,544.32 h 212.52 v 226.8 H 70.8 Z"
         id="path482"
         inkscape:connector-curvature="0"
         style="clip-rule:evenodd" /></clipPath><clipPath
       clipPathUnits="userSpaceOnUse"
       id="clipPath498"><path
         d="m 70.8,544.32 h 212.52 v 226.8 H 70.8 Z"
         id="path496"
         inkscape:connector-curvature="0"
         style="clip-rule:evenodd" /></clipPath></defs><sodipodi:namedview
     pagecolor="#ffffff"
     bordercolor="#666666"
     borderopacity="1"
     objecttolerance="10"
     gridtolerance="10"
     guidetolerance="10"
     inkscape:pageopacity="0"
     inkscape:pageshadow="2"
     inkscape:window-width="1920"
     inkscape:window-height="1003"
     id="namedview12"
     showgrid="false"
     inkscape:zoom="0.72156496"
     inkscape:cx="396.88"
     inkscape:cy="561.28003"
     inkscape:window-x="-9"
     inkscape:window-y="-9"
     inkscape:window-maximized="1"
     inkscape:current-layer="g18" /><g
     id="g18"
     inkscape:groupmode="layer"
     inkscape:label="Abbildung3_mitText"
     transform="matrix(1.3333333,0,0,-1.3333333,0,1122.56)"><g
       id="g20"><g
         id="g22"
         clip-path="url(#clipPath26)" /></g><g
       id="g28"><g
         id="g30"
         clip-path="url(#clipPath34)" /></g><g
       id="g36"><g
         id="g38"
         clip-path="url(#clipPath42)" /></g><g
       id="g44"><g
         id="g46"
         clip-path="url(#clipPath50)" /></g><g
       id="g52"><g
         id="g54"
         clip-path="url(#clipPath58)" /></g><g
       id="g60"><g
         id="g62"
         clip-path="url(#clipPath66)" /></g><g
       id="g68"><g
         id="g70"
         clip-path="url(#clipPath74)" /></g><g
       id="g76"><g
         id="g78"
         clip-path="url(#clipPath82)" /></g><g
       id="g84"><g
         id="g86"
         clip-path="url(#clipPath90)" /></g><g
       id="g92"><g
         id="g94"
         clip-path="url(#clipPath98)" /></g><g
       id="g100"><g
         id="g102"
         clip-path="url(#clipPath106)" /></g><g
       id="g108"><g
         id="g110"
         clip-path="url(#clipPath114)" /></g><g
       id="g116"><g
         id="g118"
         clip-path="url(#clipPath122)" /></g><g
       id="g124"><g
         id="g126"
         clip-path="url(#clipPath130)" /></g><g
       id="g132"><g
         id="g134"
         clip-path="url(#clipPath138)" /></g><g
       id="g140"><g
         id="g142"
         clip-path="url(#clipPath146)"><text
           transform="matrix(1,0,0,-1,70.824,513.19)"
           style="font-style:italic;font-variant:normal;font-weight:normal;font-size:11.03999996px;font-family:Calibri;-inkscape-font-specification:Calibri-Italic;writing-mode:lr-tb;fill:#808080;fill-opacity:1;fill-rule:nonzero;stroke:none"
           id="text150"><tspan
             x="0 6.8337598 9.3729601 14.65008 18.944639 24.111361 26.860319 33.25248"
             y="0"
             sodipodi:role="line"
             id="tspan148">Diese Ab</tspan></text>
</g></g><g
       id="g152"><g
         id="g154"
         clip-path="url(#clipPath158)"><text
           transform="matrix(1,0,0,-1,109.7,513.19)"
           style="font-style:italic;font-variant:normal;font-weight:normal;font-size:11.03999996px;font-family:Calibri;-inkscape-font-specification:Calibri-Italic;writing-mode:lr-tb;fill:#808080;fill-opacity:1;fill-rule:nonzero;stroke:none"
           id="text162"><tspan
             x="0 5.6414399 8.1806402 10.68672 16.328159 21.969601 27.61104 33.25248 36.001438 43.895039 49.437119 53.268002 58.909439 64.065117 66.814079 72.455521 78.096962 82.29216 84.83136 90.108482 93.917282 99.194397 104.86896 110.47728 113.22624 118.86768 124.50912 127.74384 130.4928 136.13425 141.28992 145.1208"
             y="0"
             sodipodi:role="line"
             id="tspan160">bildung wurde basierend auf der </tspan></text>
</g></g><g
       id="g164"><g
         id="g166"
         clip-path="url(#clipPath170)"><text
           transform="matrix(1,0,0,-1,257.57,513.19)"
           style="font-style:italic;font-variant:normal;font-weight:normal;font-size:11.03999996px;font-family:Calibri;-inkscape-font-specification:Calibri-Italic;writing-mode:lr-tb;fill:#808080;fill-opacity:1;fill-rule:nonzero;stroke:none"
           id="text174"><tspan
             x="0 7.0876799 15.82032 19.07712 22.908001 28.54944 34.19088 39.467999 42.216961 47.858398 53.01408 57.209278 59.958241 65.599678 70.876801"
             y="0"
             sodipodi:role="line"
             id="tspan172">Umfrage des Pew</tspan></text>
</g></g><g
       id="g176"><g
         id="g178"
         clip-path="url(#clipPath182)" /></g><g
       id="g184"><g
         id="g186"
         clip-path="url(#clipPath190)"><text
           transform="matrix(1,0,0,-1,339.07,513.19)"
           style="font-style:italic;font-variant:normal;font-weight:normal;font-size:11.03999996px;font-family:Calibri;-inkscape-font-specification:Calibri-Italic;writing-mode:lr-tb;fill:#808080;fill-opacity:1;fill-rule:nonzero;stroke:none"
           id="text194"><tspan
             x="0 5.99472 11.16144 15.456 20.73312 26.407681 30.22752 34.82016 40.307041 43.056 48.818878 54.096001 59.737438 63.435841 68.613602 72.334084 75.083038 80.238724 84.069603 88.364159 92.09568 97.251358 99.790558 102.29664 105.99504 108.75504 111.40464 119.29824 124.57536 127.11456 131.7072 137.32655 142.60368 145.35265 149.54784 157.44144 159.98064 164.27521 168.86784 174.50928 179.78641 185.3064"
             y="0"
             sodipodi:role="line"
             id="tspan192">Research Center erstellt, welche zwischen </tspan></text>
</g></g><g
       id="g196"><g
         id="g198"
         clip-path="url(#clipPath202)"><text
           transform="matrix(1,0,0,-1,70.824,498.67)"
           style="font-style:italic;font-variant:normal;font-weight:normal;font-size:11.03999996px;font-family:Calibri;-inkscape-font-specification:Calibri-Italic;writing-mode:lr-tb;fill:#808080;fill-opacity:1;fill-rule:nonzero;stroke:none"
           id="text206"><tspan
             x="0 5.6414399 10.91856 19.651199 26.03232 31.55232 37.18272 39.964802 45.462719 51.093121"
             y="0"
             sodipodi:role="line"
             id="tspan204">dem 10.05.</tspan></text>
</g></g><g
       id="g208"><g
         id="g210"
         clip-path="url(#clipPath214)"><text
           transform="matrix(1,0,0,-1,124.7,498.67)"
           style="font-style:italic;font-variant:normal;font-weight:normal;font-size:11.03999996px;font-family:Calibri;-inkscape-font-specification:Calibri-Italic;writing-mode:lr-tb;fill:#808080;fill-opacity:1;fill-rule:nonzero;stroke:none"
           id="text218"><tspan
             x="0"
             y="0"
             id="tspan216">-</tspan></text>
</g></g><g
       id="g220"><g
         id="g222"
         clip-path="url(#clipPath226)"><text
           transform="matrix(1,0,0,-1,128.06,498.67)"
           style="font-style:italic;font-variant:normal;font-weight:normal;font-size:11.03999996px;font-family:Calibri;-inkscape-font-specification:Calibri-Italic;writing-mode:lr-tb;fill:#808080;fill-opacity:1;fill-rule:nonzero;stroke:none"
           id="text230"><tspan
             x="0 5.6304002 11.2608 13.89936 19.52976 25.16016 27.798719 33.429119 38.94912 44.579521 50.209919 56.557919 62.077919 67.71936 71.55024 76.142883 81.751198 87.392639 92.669762 96.036957 101.66736 107.3088 111.13968 114.83808 121.20816 129.10176 134.64384 138.47472 144.11617 149.39328 152.17535 158.50128 163.06081 169.05553 174.33264 179.86368 185.50513 191.14656 193.68576 196.19183 201.21504 206.8896 212.50896 217.78609 221.61696 226.28688 232.63487 238.27632 243.91776 249.5592 255.9072 260.46671 267.30048 272.45615 281.18881 286.85233 291.77615 295.60703 301.24847 304.94687 310.224 315.89856 320.55743 326.90543 331.20001 335.79263 341.42303 343.96225 346.46832 351.62399 357.49728 362.77441 368.44897 374.76385 380.40527 386.04672 390.63937 396.12625"
             y="0"
             sodipodi:role="line"
             id="tspan228">06.06.2016 durchgeführt wurde. „Republikaner“ und „Demokraten“ schließen auch </tspan></text>
</g></g><g
       id="g232"><g
         id="g234"
         clip-path="url(#clipPath238)"><text
           transform="matrix(1,0,0,-1,70.824,484.15)"
           style="font-style:italic;font-variant:normal;font-weight:normal;font-size:11.03999996px;font-family:Calibri;-inkscape-font-specification:Calibri-Italic;writing-mode:lr-tb;fill:#808080;fill-opacity:1;fill-rule:nonzero;stroke:none"
           id="text242"><tspan
             x="0 4.66992 7.4520001 13.07136 18.712799 23.98992 29.66448 34.941601 40.549919 46.19136 51.468479 57.14304 60.841438 65.036636 69.706558 71.748962 77.390404 83.031837 88.673279 90.715683 96.357117 101.99856 107.64 112.79568 116.62656 121.78224 123.82464 130.90128 133.44048 137.97792 143.61935"
             y="0"
             sodipodi:role="line"
             id="tspan240">„Independents“ und andere Nicht</tspan></text>
</g></g><g
       id="g244"><g
         id="g246"
         clip-path="url(#clipPath250)"><text
           transform="matrix(1,0,0,-1,218.21,484.15)"
           style="font-style:italic;font-variant:normal;font-weight:normal;font-size:11.03999996px;font-family:Calibri;-inkscape-font-specification:Calibri-Italic;writing-mode:lr-tb;fill:#808080;fill-opacity:1;fill-rule:nonzero;stroke:none"
           id="text254"><tspan
             x="0"
             y="0"
             id="tspan252">-</tspan></text>
</g></g><g
       id="g256"><g
         id="g258"
         clip-path="url(#clipPath262)"><text
           transform="matrix(1,0,0,-1,221.57,484.15)"
           style="font-style:italic;font-variant:normal;font-weight:normal;font-size:11.03999996px;font-family:Calibri;-inkscape-font-specification:Calibri-Italic;writing-mode:lr-tb;fill:#808080;fill-opacity:1;fill-rule:nonzero;stroke:none"
           id="text266"><tspan
             x="0 5.7518401 11.39328 15.11376 18.81216 21.35136 25.64592 31.32048 36.950878 42.228001 47.902561 49.790401 55.06752 57.60672 63.226082 65.986076 68.028481 73.669922 76.209122 81.486237 83.506561 87.823196 93.343201 95.385597 100.66272 103.20192 108.82128 114.0984 117.81888 119.86128 125.50272 130.77985 134.50032 136.42128 142.17313 147.81456 151.64545 155.24448 160.52161 163.06081 168.33792 173.96832 176.01073 179.60976 184.88689 190.56145 196.16975 198.70895 203.98608 207.79488 212.95056 218.592 221.37408 223.39439 233.22 235.7592 240.05376 244.38144 249.65855 255.17856 259.47311 264.06577 269.69617 275.33759 278.7048 282.4032 284.94241 287.4816 292.01904 297.66049 302.81616"
             y="0"
             sodipodi:role="line"
             id="tspan264">Partisanen ein, die zu einer der Parteien tendieren. Wissenschaftliche </tspan></text>
</g></g><g
       id="g268"><g
         id="g270"
         clip-path="url(#clipPath274)"><text
           transform="matrix(1,0,0,-1,70.824,469.75)"
           style="font-style:italic;font-variant:normal;font-weight:normal;font-size:11.03999996px;font-family:Calibri;-inkscape-font-specification:Calibri-Italic;writing-mode:lr-tb;fill:#808080;fill-opacity:1;fill-rule:nonzero;stroke:none"
           id="text278"><tspan
             x="0 6.2596798 11.87904 15.70992 20.73312 26.010241 31.684799 37.315201 41.013599 46.68816 49.22736 53.400478 57.695042 62.97216 65.51136 71.152802 76.794243 81.088799 83.627998 88.794724 92.625603"
             y="0"
             sodipodi:role="line"
             id="tspan276">Vorkenntnisse basiere</tspan></text>
</g></g><g
       id="g280"><g
         id="g282"
         clip-path="url(#clipPath286)"><text
           transform="matrix(1,0,0,-1,168.74,469.75)"
           style="font-style:italic;font-variant:normal;font-weight:normal;font-size:11.03999996px;font-family:Calibri;-inkscape-font-specification:Calibri-Italic;writing-mode:lr-tb;fill:#808080;fill-opacity:1;fill-rule:nonzero;stroke:none"
           id="text290"><tspan
             x="0 5.6414399 8.1364803 13.81104 19.441441 22.676161 25.1712 30.44832 32.987518 38.662079 43.939201 52.671841 55.166882 62.287682 67.564796 73.195198"
             y="0"
             sodipodi:role="line"
             id="tspan288">n auf einem Neun</tspan></text>
</g></g><g
       id="g292"><g
         id="g294"
         clip-path="url(#clipPath298)"><text
           transform="matrix(1,0,0,-1,247.61,469.75)"
           style="font-style:italic;font-variant:normal;font-weight:normal;font-size:11.03999996px;font-family:Calibri;-inkscape-font-specification:Calibri-Italic;writing-mode:lr-tb;fill:#808080;fill-opacity:1;fill-rule:nonzero;stroke:none"
           id="text302"><tspan
             x="0"
             y="0"
             id="tspan300">-</tspan></text>
</g></g><g
       id="g304"><g
         id="g306"
         clip-path="url(#clipPath310)"><text
           transform="matrix(1,0,0,-1,250.97,469.75)"
           style="font-style:italic;font-variant:normal;font-weight:normal;font-size:11.03999996px;font-family:Calibri;-inkscape-font-specification:Calibri-Italic;writing-mode:lr-tb;fill:#808080;fill-opacity:1;fill-rule:nonzero;stroke:none"
           id="text314"><tspan
             x="0 2.7820799 6.3590398 11.63616 20.368799 22.908001 25.690081 31.309441 36.950878 42.228001 47.00832"
             y="0"
             sodipodi:role="line"
             id="tspan312">Item Index.</tspan></text>
</g></g><g
       id="g316"><g
         id="g318"
         clip-path="url(#clipPath322)" /></g><path
       d="m 92.16,628.44 h 14.4 v -17.85 h -14.4 z m 63.96,13.8 h 14.4 v -31.65 h -14.4 z m 63.96,-1.08 h 14.4 v -30.57 h -14.4 z"
       style="fill:#c00000;fill-opacity:1;fill-rule:nonzero;stroke:none"
       id="path326"
       inkscape:connector-curvature="0" /><path
       d="m 110.4,655.92 h 14.4 v -45.33 h -14.4 z m 63.96,17.88 h 14.4 v -63.21 h -14.4 z m 63.96,11.52 h 14.4 v -74.73 h -14.4 z"
       style="fill:#4472c4;fill-opacity:1;fill-rule:nonzero;stroke:none"
       id="path328"
       inkscape:connector-curvature="0" /><path
       d="M 76.474,610.59 H 268.4"
       style="fill:none;stroke:#d9d9d9;stroke-width:0.75;stroke-linecap:butt;stroke-linejoin:round;stroke-miterlimit:10;stroke-dasharray:none;stroke-opacity:1"
       id="path330"
       inkscape:connector-curvature="0" /><g
       id="g332"><g
         id="g334"
         clip-path="url(#clipPath338)"><text
           transform="matrix(1,0,0,-1,94.8,635.42)"
           style="font-variant:normal;font-weight:normal;font-size:9px;font-family:Calibri;-inkscape-font-specification:Calibri;writing-mode:lr-tb;fill:#404040;fill-opacity:1;fill-rule:nonzero;stroke:none"
           id="text342"><tspan
             x="0 4.5599999"
             y="0"
             sodipodi:role="line"
             id="tspan340">17</tspan></text>
</g></g><g
       id="g344"><g
         id="g346"
         clip-path="url(#clipPath350)"><text
           transform="matrix(1,0,0,-1,158.78,649.13)"
           style="font-variant:normal;font-weight:normal;font-size:9px;font-family:Calibri;-inkscape-font-specification:Calibri;writing-mode:lr-tb;fill:#404040;fill-opacity:1;fill-rule:nonzero;stroke:none"
           id="text354"><tspan
             x="0 4.5599999"
             y="0"
             sodipodi:role="line"
             id="tspan352">30</tspan></text>
</g></g><g
       id="g356"><g
         id="g358"
         clip-path="url(#clipPath362)"><text
           transform="matrix(1,0,0,-1,222.77,648.07)"
           style="font-variant:normal;font-weight:normal;font-size:9px;font-family:Calibri;-inkscape-font-specification:Calibri;writing-mode:lr-tb;fill:#404040;fill-opacity:1;fill-rule:nonzero;stroke:none"
           id="text366"><tspan
             x="0 4.5599999"
             y="0"
             sodipodi:role="line"
             id="tspan364">29</tspan></text>
</g></g><g
       id="g368"><g
         id="g370"
         clip-path="url(#clipPath374)"><text
           transform="matrix(1,0,0,-1,113.02,662.81)"
           style="font-variant:normal;font-weight:normal;font-size:9px;font-family:Calibri;-inkscape-font-specification:Calibri;writing-mode:lr-tb;fill:#404040;fill-opacity:1;fill-rule:nonzero;stroke:none"
           id="text378"><tspan
             x="0 4.5599999"
             y="0"
             sodipodi:role="line"
             id="tspan376">43</tspan></text>
</g></g><g
       id="g380"><g
         id="g382"
         clip-path="url(#clipPath386)"><text
           transform="matrix(1,0,0,-1,177,680.71)"
           style="font-variant:normal;font-weight:normal;font-size:9px;font-family:Calibri;-inkscape-font-specification:Calibri;writing-mode:lr-tb;fill:#404040;fill-opacity:1;fill-rule:nonzero;stroke:none"
           id="text390"><tspan
             x="0 4.5599999"
             y="0"
             sodipodi:role="line"
             id="tspan388">60</tspan></text>
</g></g><g
       id="g392"><g
         id="g394"
         clip-path="url(#clipPath398)"><text
           transform="matrix(1,0,0,-1,240.98,692.3)"
           style="font-variant:normal;font-weight:normal;font-size:9px;font-family:Calibri;-inkscape-font-specification:Calibri;writing-mode:lr-tb;fill:#404040;fill-opacity:1;fill-rule:nonzero;stroke:none"
           id="text402"><tspan
             x="0 4.5599999"
             y="0"
             sodipodi:role="line"
             id="tspan400">71</tspan></text>
</g></g><g
       id="g404"><g
         id="g406"
         clip-path="url(#clipPath410)"><text
           transform="matrix(1,0,0,-1,97.032,596.33)"
           style="font-variant:normal;font-weight:normal;font-size:9px;font-family:Calibri;-inkscape-font-specification:Calibri;writing-mode:lr-tb;fill:#595959;fill-opacity:1;fill-rule:nonzero;stroke:none"
           id="text414"><tspan
             x="0 4.2030001 8.757 11.898 13.914 18.594"
             y="0"
             sodipodi:role="line"
             id="tspan412">gering</tspan></text>
</g></g><g
       id="g416"><g
         id="g418"
         clip-path="url(#clipPath422)"><text
           transform="matrix(1,0,0,-1,161.54,596.33)"
           style="font-variant:normal;font-weight:normal;font-size:9px;font-family:Calibri;-inkscape-font-specification:Calibri;writing-mode:lr-tb;fill:#595959;fill-opacity:1;fill-rule:nonzero;stroke:none"
           id="text426"><tspan
             x="0 7.191 9.2609997 12.24 15.255 19.791"
             y="0"
             sodipodi:role="line"
             id="tspan424">mittel</tspan></text>
</g></g><g
       id="g428"><g
         id="g430"
         clip-path="url(#clipPath434)"><text
           transform="matrix(1,0,0,-1,227.45,596.33)"
           style="font-variant:normal;font-weight:normal;font-size:9px;font-family:Calibri;-inkscape-font-specification:Calibri;writing-mode:lr-tb;fill:#595959;fill-opacity:1;fill-rule:nonzero;stroke:none"
           id="text438"><tspan
             x="0 4.6799998 9.4680004 13.302"
             y="0"
             sodipodi:role="line"
             id="tspan436">hoch</tspan></text>
</g></g><g
       id="g440"><g
         id="g442"
         clip-path="url(#clipPath446)"><text
           transform="matrix(1,0,0,-1,103.99,581.38)"
           style="font-variant:normal;font-weight:normal;font-size:9.96000004px;font-family:Calibri;-inkscape-font-specification:Calibri;writing-mode:lr-tb;fill:#595959;fill-opacity:1;fill-rule:nonzero;stroke:none"
           id="text450"><tspan
             x="0 8.8643999 11.1552 14.99976 18.84432 23.764561 29.0334 32.87796 37.091042 42.349918 47.120762 50.158562 53.495159 55.785961 58.076759 62.289841 67.538757 72.459 75.08844 80.735764 85.98468 89.460716 94.04232 98.962563 104.2314 109.50024 112.83684 118.1256 120.4164 124.24104 128.0856 131.93016"
             y="0"
             sodipodi:role="line"
             id="tspan448">Wissenschaftliche Vorkenntnissse</tspan></text>
</g></g><g
       id="g452"><g
         id="g454"
         clip-path="url(#clipPath458)"><text
           transform="matrix(1,0,0,-1,96.312,750.24)"
           style="font-variant:normal;font-weight:normal;font-size:14.03999996px;font-family:Calibri;-inkscape-font-specification:Calibri;writing-mode:lr-tb;fill:#595959;fill-opacity:1;fill-rule:nonzero;stroke:none"
           id="text462"><tspan
             x="0 8.7469196 15.47208 22.843081 27.12528 30.354481 36.869041 43.860958 48.508202 55.500118 58.588921 67.223518 74.594521 79.494476 84.1698 91.16172 98.448479 101.56536 108.96444 116.33544 123.32736 128.22733 131.33015 142.54813 149.46983 156.78468 161.68465"
             y="0"
             sodipodi:role="line"
             id="tspan460">Häufigere Dürren oder mehr </tspan></text>
</g></g><g
       id="g464"><g
         id="g466"
         clip-path="url(#clipPath470)"><text
           transform="matrix(1,0,0,-1,127.66,733.08)"
           style="font-variant:normal;font-weight:normal;font-size:14.03999996px;font-family:Calibri;-inkscape-font-specification:Calibri;writing-mode:lr-tb;fill:#595959;fill-opacity:1;fill-rule:nonzero;stroke:none"
           id="text474"><tspan
             x="0 12.0042 18.729361 24.219 29.750759 36.74268 41.642639 48.030842 55.3176 62.042759 69.357597 76.67244 83.987282 90.979202 94.208397"
             y="0"
             sodipodi:role="line"
             id="tspan472">Wasserknappheit</tspan></text>
</g></g><path
       d="m 124.5,556.29 h 4.9433 v 4.9433 H 124.5 Z"
       style="fill:#c00000;fill-opacity:1;fill-rule:evenodd;stroke:none"
       id="path476"
       inkscape:connector-curvature="0" /><g
       id="g478"><g
         id="g480"
         clip-path="url(#clipPath484)"><text
           transform="matrix(1,0,0,-1,131.57,556.18)"
           style="font-variant:normal;font-weight:normal;font-size:9px;font-family:Calibri;-inkscape-font-specification:Calibri;writing-mode:lr-tb;fill:#595959;fill-opacity:1;fill-rule:nonzero;stroke:none"
           id="text488"><tspan
             x="0 4.914 9.3509998 14.031 18.819 23.499001 25.65 27.693001 31.788 36.098999 40.77 45.207001"
             y="0"
             sodipodi:role="line"
             id="tspan486">Republikaner</tspan></text>
</g></g><path
       d="m 189.8,556.29 h 4.9433 v 4.9433 H 189.8 Z"
       style="fill:#4472c4;fill-opacity:1;fill-rule:evenodd;stroke:none"
       id="path490"
       inkscape:connector-curvature="0" /><g
       id="g492"><g
         id="g494"
         clip-path="url(#clipPath498)"><text
           transform="matrix(1,0,0,-1,196.87,556.18)"
           style="font-variant:normal;font-weight:normal;font-size:9px;font-family:Calibri;-inkscape-font-specification:Calibri;writing-mode:lr-tb;fill:#595959;fill-opacity:1;fill-rule:nonzero;stroke:none"
           id="text502"><tspan
             x="0 5.5349998 9.9630003 17.153999 21.951 26.046 29.150999 33.462002"
             y="0"
             sodipodi:role="line"
             id="tspan500">Demokrat</tspan></text>
</g></g><path
       d="M 70.85,544.32 H 283.4 V 771.07 H 70.85 Z"
       style="fill:none;stroke:#d9d9d9;stroke-width:0.75;stroke-linecap:butt;stroke-linejoin:round;stroke-miterlimit:10;stroke-dasharray:none;stroke-opacity:1"
       id="path504"
       inkscape:connector-curvature="0" /></g></svg>